<svg width="17" height="16" viewBox="0 0 17 16" fill="none" xmlns="http://www.w3.org/2000/svg">
<path d="M16.3444 6.4332H15.7V6.4H8.5V9.6H13.0212C12.3616 11.4628 10.5892 12.8 8.5 12.8C5.8492 12.8 3.7 10.6508 3.7 8C3.7 5.3492 5.8492 3.2 8.5 3.2C9.7236 3.2 10.8368 3.6616 11.6844 4.4156L13.9472 2.1528C12.5184 0.8212 10.6072 0 8.5 0C4.082 0 0.5 3.582 0.5 8C0.5 12.418 4.082 16 8.5 16C12.918 16 16.5 12.418 16.5 8C16.5 7.4636 16.4448 6.94 16.3444 6.4332Z" fill="#FBC02D"/>
<path d="M1.4224 4.2764L4.0508 6.204C4.762 4.4432 6.4844 3.2 8.5 3.2C9.7236 3.2 10.8368 3.6616 11.6844 4.4156L13.9472 2.1528C12.5184 0.8212 10.6072 0 8.5 0C5.4272 0 2.7624 1.7348 1.4224 4.2764Z" fill="#E53935"/>
<path d="M8.5 16C10.5664 16 12.444 15.2092 13.8636 13.9232L11.3876 11.828C10.5844 12.4364 9.586 12.8 8.5 12.8C6.4192 12.8 4.6524 11.4732 3.9868 9.6216L1.378 11.6316C2.702 14.2224 5.3908 16 8.5 16Z" fill="#4CAF50"/>
<path d="M16.3444 6.4332L16.338 6.4H15.7H8.5V9.6H13.0212C12.7044 10.4948 12.1288 11.2664 11.3864 11.8284L11.3876 11.8276L13.8636 13.9228C13.6884 14.082 16.5 12 16.5 8C16.5 7.4636 16.4448 6.94 16.3444 6.4332Z" fill="#1565C0"/>
</svg>
