<svg width="106" height="22" viewBox="0 0 106 22" fill="none" xmlns="http://www.w3.org/2000/svg">
<path d="M70.2458 0.879031H88.5372V4.24619H81.2812V21.9604H77.6529V4.24619H70.2458V0.879031Z" fill="black"/>
<path d="M40.1634 0.879031V4.24619H25.5016V9.66291H37.2926V13.0301H25.5016V18.5932H40.1634V21.9604H21.8736V4.24619H21.8721V0.879031H40.1634Z" fill="black"/>
<path d="M49.2969 0.887823H44.5489L61.5551 21.9692H66.3169L57.8127 11.4357L66.3033 0.903907L61.5551 0.911225L55.4356 8.4913L49.2969 0.887823Z" fill="black"/>
<path d="M54.169 15.9463L51.7913 12.9978L44.5353 21.9852H49.2969L54.169 15.9463Z" fill="black"/>
<path fill-rule="evenodd" clip-rule="evenodd" d="M22.0008 21.9604L4.97167 0.870239H0.436646V21.9516H4.06467V5.37636L17.443 21.9604H22.0008Z" fill="black"/>
<path d="M89.3528 21.8316C89.087 21.8316 88.861 21.7398 88.6718 21.5562C88.4826 21.3726 88.389 21.1503 88.3914 20.887C88.389 20.6309 88.4826 20.411 88.6718 20.2274C88.861 20.0438 89.087 19.952 89.3528 19.952C89.6084 19.952 89.832 20.0438 90.0212 20.2274C90.2131 20.411 90.3088 20.6309 90.3115 20.887C90.3088 21.0609 90.2646 21.2204 90.1761 21.3629C90.0852 21.5079 89.9698 21.6214 89.8245 21.7036C89.6819 21.7881 89.5247 21.8316 89.3528 21.8316Z" fill="black"/>
<path d="M95.5451 12.9506H97.1528V19.1282C97.1504 19.6959 97.0272 20.1815 96.7866 20.5898C96.5432 20.9981 96.2063 21.3097 95.7738 21.5296C95.3436 21.747 94.8396 21.8582 94.2668 21.8582C93.7431 21.8582 93.2737 21.7639 92.8558 21.5803C92.4379 21.3967 92.106 21.1213 91.8627 20.7589C91.6167 20.3965 91.4962 19.9448 91.4962 19.4036H93.1066C93.109 19.6404 93.1631 19.8457 93.2662 20.0172C93.3694 20.1887 93.512 20.3192 93.694 20.411C93.8782 20.5028 94.0898 20.5487 94.3281 20.5487C94.5864 20.5487 94.8076 20.4956 94.987 20.3868C95.1663 20.2805 95.3041 20.1211 95.4001 19.9085C95.4934 19.6983 95.5427 19.4374 95.5451 19.1282V12.9506Z" fill="black"/>
<path d="M103.768 15.3666C103.729 14.9921 103.556 14.6998 103.257 14.492C102.954 14.2818 102.563 14.1779 102.084 14.1779C101.747 14.1779 101.457 14.2287 101.216 14.3277C100.975 14.4292 100.789 14.5645 100.661 14.736C100.533 14.9075 100.469 15.1032 100.464 15.3231C100.464 15.5067 100.508 15.6661 100.594 15.799C100.68 15.9343 100.796 16.0479 100.946 16.1397C101.093 16.2339 101.258 16.3112 101.438 16.374C101.619 16.4368 101.801 16.49 101.983 16.5335L102.821 16.7388C103.158 16.8161 103.485 16.92 103.797 17.0529C104.109 17.1834 104.392 17.3501 104.64 17.5506C104.889 17.7511 105.086 17.9927 105.23 18.2754C105.375 18.558 105.449 18.889 105.449 19.2707C105.449 19.7853 105.317 20.2371 105.048 20.6284C104.781 21.0174 104.395 21.3218 103.888 21.5417C103.384 21.7591 102.775 21.8702 102.057 21.8702C101.364 21.8702 100.759 21.764 100.25 21.5514C99.7389 21.3412 99.3405 21.0319 99.0529 20.626C98.7653 20.2202 98.6104 19.7249 98.5883 19.1427H100.181C100.203 19.4471 100.302 19.7008 100.469 19.9061C100.638 20.109 100.86 20.2588 101.13 20.3603C101.403 20.4593 101.708 20.5101 102.045 20.5101C102.396 20.5101 102.706 20.4569 102.974 20.353C103.239 20.2491 103.448 20.1042 103.598 19.9158C103.751 19.7297 103.827 19.5099 103.829 19.2586C103.827 19.0291 103.758 18.8382 103.625 18.6884C103.49 18.5387 103.303 18.4131 103.065 18.3116C102.824 18.2101 102.544 18.1183 102.224 18.0386L101.206 17.7825C100.471 17.5965 99.8887 17.3138 99.4633 16.9345C99.0358 16.5552 98.8242 16.0527 98.8242 15.4221C98.8242 14.9052 98.9668 14.451 99.2546 14.062C99.5396 13.673 99.9305 13.371 100.425 13.156C100.921 12.9386 101.482 12.8323 102.106 12.8323C102.74 12.8323 103.296 12.9386 103.775 13.156C104.254 13.371 104.631 13.6706 104.903 14.0523C105.176 14.434 105.319 14.8713 105.326 15.3666H103.768Z" fill="black"/>
</svg>
