<svg width="113" height="29" viewBox="0 0 113 29" fill="none" xmlns="http://www.w3.org/2000/svg">
<path d="M33.0828 0H16.7477V28.8524H33.0828V0Z" fill="white"/>
<path d="M16.7477 6.62628C28.8752 6.62628 26.7122 11.9118 26.7122 11.9118C26.6048 15.279 25.4113 22.7749 25.0158 23.5699C24.6198 24.3656 22.5186 26.6457 20.8742 27.5202C20.8742 27.5202 20.2803 26.8559 19.9169 26.2704C19.4567 26.8437 17.0732 28.8554 16.7477 28.8554V6.62628Z" fill="#1EBCA1"/>
<path d="M26.8609 10.9969C26.8609 11.5396 26.7122 11.9087 26.7122 11.9087C26.6048 15.2759 25.4113 22.7712 25.0158 23.5669C24.6198 24.3626 22.5186 26.6426 20.8742 27.5171C20.8742 27.5171 20.2803 26.8528 19.9169 26.2674C19.4567 26.8406 17.0732 28.8524 16.7477 28.8524V10.9969H26.8609Z" fill="#1EBCA1"/>
<path d="M25.3355 11.8476L24.7533 16.8068L21.517 17.1111L21.8023 21.3021C21.8023 21.3021 19.8318 23.0242 16.75 23.0242V12.1526L25.3384 11.847L25.3355 11.8476Z" fill="url(#paint0_linear_294_74)"/>
<path d="M31.9173 9.77594L16.1649 15.4257V10.0033L30.3732 6.22417L31.9173 9.77594Z" fill="#4FF7D1"/>
<path d="M31.919 9.77472L27.579 11.3019V0.304944C27.579 0.304944 31.919 5.27328 31.919 9.77472ZM22.2217 9.04628L23.7675 5.83672L26.1218 8.82995M16.1649 10.0033L19.6573 10.0033L20.362 19.9216C18.9915 20.2885 17.5824 20.4739 16.1678 20.4734V10.0033L16.1649 10.0033Z" fill="#4FF7D1"/>
<path d="M0.449341 0H16.785V28.8524H0.449341V0Z" fill="white"/>
<path d="M16.785 6.62628C4.65751 6.62628 6.82051 11.9118 6.82051 11.9118C6.92784 15.279 8.12134 22.7749 8.51684 23.5699C8.91292 24.3656 11.0135 26.6457 12.6585 27.5202C12.6585 27.5202 13.2523 26.8559 13.6158 26.2704C14.0754 26.8437 16.4589 28.8554 16.785 28.8554V6.62628Z" fill="#1EBCA1"/>
<path d="M6.67176 10.9969C6.67176 11.5396 6.81992 11.9087 6.81992 11.9087C6.92784 15.2759 8.12076 22.7712 8.51684 23.5669C8.91234 24.3626 11.0135 26.6426 12.6585 27.5171C12.6585 27.5171 13.2518 26.8528 13.6152 26.2674C14.0754 26.8406 16.4589 28.8524 16.785 28.8524V10.9969H6.67176Z" fill="#1EBCA1"/>
<path d="M8.19717 11.8476L8.77934 16.8068L12.0151 17.1111L11.7298 21.3021C11.7298 21.3021 13.7003 23.0242 16.7827 23.0242V12.1526L8.19426 11.847L8.19717 11.8476Z" fill="url(#paint1_linear_294_74)"/>
<path d="M1.61542 9.77594L17.3672 15.4257V10.0033L3.15951 6.22417L1.61542 9.77594Z" fill="#4FF7D1"/>
<path d="M1.61367 9.77472L5.95309 11.3019V0.304944C5.95309 0.304944 1.61367 5.27328 1.61367 9.77472ZM11.311 9.04628L9.76517 5.83672L7.41143 8.82995M17.3672 10.0033L13.8748 10.0033L13.1707 19.9216C14.5473 20.2901 15.9555 20.4734 17.3643 20.4734V10.0033L17.3672 10.0033Z" fill="#4FF7D1"/>
<path d="M45.8589 11.5213V25.8042H41.6653V11.5213L37.0057 10.912V7.36328H50.4953V10.9114L45.8589 11.5213ZM51.8253 18.4488V7.36328H56.0194V18.4488C56.0194 20.5278 56.9469 21.9664 59.0078 21.9664C61.0682 21.9664 61.9473 20.5003 61.9473 18.4219V7.36328H66.1408V18.4213C66.1408 22.8714 63.7282 26.1482 58.9553 26.1482C54.1825 26.1482 51.8223 23.0572 51.8223 18.4482L51.8253 18.4488ZM77.4476 17.3855L81.4172 25.8042H76.9208L73.5043 18.2362H72.3749V25.8042H68.2041V7.36694H74.1821C77.8256 7.36694 79.659 9.3665 79.659 12.8566C79.659 14.9074 78.8563 16.4804 77.4476 17.3855ZM72.372 11.2041V14.6153H73.8298C74.7847 14.6153 75.3377 13.9229 75.3377 12.8841C75.3377 11.8446 74.7584 11.2041 73.8298 11.2041H72.372ZM87.0953 13.9993L89.2811 14.9044C91.5421 15.8889 92.8721 17.4894 92.8721 20.2327C92.8721 23.9635 90.3836 26.1482 86.8941 26.1482C81.9206 26.1482 81.0153 22.7107 81.1669 20.0188H85.1365C85.0869 21.1921 85.5122 22.3386 86.8941 22.3386C87.849 22.3386 88.5531 21.7776 88.5531 20.7142C88.5531 19.6509 87.849 19.1687 86.7197 18.7147C85.8406 18.3425 84.9621 17.9954 84.0072 17.4894C82.2496 16.5293 81.318 14.7186 81.318 12.4813C81.318 9.2565 83.5271 7.01922 86.9203 7.01922C91.0153 7.01922 92.4964 9.49728 92.322 12.7741H88.4545C88.4808 11.6282 87.9278 10.8295 86.9466 10.8295C85.966 10.8295 85.5151 11.4418 85.5151 12.2167C85.5151 12.9904 85.9164 13.5208 87.0983 14.0024L87.0953 13.9993ZM102.793 7.01922C108.472 7.01922 112.014 11.1497 112.014 16.5324C112.014 21.9151 108.495 26.1513 102.919 26.1513C97.3422 26.1513 93.7745 22.0214 93.7745 16.6118C93.7745 11.2011 97.4413 7.01922 102.791 7.01922H102.793ZM102.896 21.9945C105.96 21.9945 107.619 19.5953 107.619 16.5837C107.619 13.5728 105.861 11.1742 102.872 11.1742C99.8832 11.1742 98.1746 13.5728 98.1746 16.5843C98.1746 19.5953 100.009 21.9939 102.898 21.9939L102.896 21.9945Z" fill="#4FF7D1"/>
<defs>
<linearGradient id="paint0_linear_294_74" x1="111.976" y1="-103.946" x2="0.411451" y2="-103.946" gradientUnits="userSpaceOnUse">
<stop stop-color="#1D2B33"/>
<stop offset="1" stop-color="#121B24"/>
</linearGradient>
<linearGradient id="paint1_linear_294_74" x1="0.487229" y1="-103.946" x2="112.051" y2="-103.946" gradientUnits="userSpaceOnUse">
<stop stop-color="#1D2B33"/>
<stop offset="1" stop-color="#121B24"/>
</linearGradient>
</defs>
</svg>
