<svg width="92" height="22" viewBox="0 0 92 22" fill="none" xmlns="http://www.w3.org/2000/svg">
<path d="M45.8788 6.17773C42.3289 6.17773 39.7693 8.54023 39.7693 12.084C39.7693 15.6277 42.6504 17.9902 46.2004 17.9902C48.3451 17.9902 50.2359 17.124 51.4063 15.6638L48.9465 14.2135C48.2969 14.9387 47.3097 15.362 46.2004 15.362C44.6601 15.362 43.3514 14.5416 42.8659 13.2291H51.8758C51.9466 12.8616 51.9884 12.481 51.9884 12.0807C51.9884 8.54024 49.4288 6.17773 45.8788 6.17773ZM42.8369 10.9355C43.2389 9.62633 44.3386 8.80273 45.8756 8.80273C47.4159 8.80273 48.5156 9.62633 48.9143 10.9355H42.8369ZM80.5038 6.17773C76.9539 6.17773 74.3943 8.54023 74.3943 12.084C74.3943 15.6277 77.2754 17.9902 80.8254 17.9902C82.9702 17.9902 84.8609 17.124 86.0314 15.6638L83.5715 14.2135C82.9219 14.9387 81.9348 15.362 80.8254 15.362C79.2851 15.362 77.9764 14.5416 77.4909 13.2291H86.5008C86.5716 12.8616 86.6134 12.481 86.6134 12.0807C86.6134 8.54024 84.0538 6.17773 80.5038 6.17773ZM77.4651 10.9355C77.8671 9.62633 78.9668 8.80273 80.5038 8.80273C82.0441 8.80273 83.1438 9.62633 83.5425 10.9355H77.4651ZM64.9149 12.084C64.9149 14.0527 66.1754 15.3652 68.1304 15.3652C69.4552 15.3652 70.4488 14.7516 70.9601 13.7509L73.4296 15.2045C72.4071 16.9435 70.4906 17.9902 68.1304 17.9902C64.5772 17.9902 62.0209 15.6277 62.0209 12.084C62.0209 8.54023 64.5804 6.17773 68.1304 6.17773C70.4906 6.17773 72.4039 7.22445 73.4296 8.96352L70.9601 10.4171C70.4488 9.41633 69.4552 8.80273 68.1304 8.80273C66.1786 8.80273 64.9149 10.1152 64.9149 12.084ZM91.4367 2.56836V17.6621H88.5427V2.56836H91.4367ZM12.4082 0.927734L24.2896 21.9277H0.526733L12.4082 0.927734ZM42.1134 2.56836L33.2031 18.3184L24.2928 2.56836H27.6338L33.2031 12.4121L38.7725 2.56836H42.1134ZM61.0562 6.50586V9.68539C60.7346 9.59023 60.3938 9.52461 60.0272 9.52461C58.159 9.52461 56.8117 10.8371 56.8117 12.8059V17.6621H53.9177V6.50586H56.8117V9.52461C56.8117 7.85773 58.7121 6.50586 61.0562 6.50586Z" fill="black"/>
</svg>
