<svg width="757" height="241" viewBox="0 0 757 241" fill="none" xmlns="http://www.w3.org/2000/svg">
<rect x="0.5" y="0.5" width="819" height="303" rx="11.5" fill="white"/>
<rect x="0.5" y="0.5" width="819" height="303" rx="11.5" stroke="#E1E4EA"/>
<path d="M24.5 29.9164V23.2497C24.5 23.0287 24.4122 22.8168 24.2559 22.6605C24.0996 22.5042 23.8877 22.4164 23.6667 22.4164H20.3333C20.1123 22.4164 19.9004 22.5042 19.7441 22.6605C19.5878 22.8168 19.5 23.0287 19.5 23.2497V29.9164M14.5 20.7497C14.4999 20.5073 14.5528 20.2677 14.6548 20.0478C14.7569 19.8279 14.9057 19.6329 15.0908 19.4764L20.9242 14.4772C21.225 14.223 21.6061 14.0835 22 14.0835C22.3939 14.0835 22.775 14.223 23.0758 14.4772L28.9092 19.4764C29.0943 19.6329 29.2431 19.8279 29.3452 20.0478C29.4472 20.2677 29.5001 20.5073 29.5 20.7497V28.2497C29.5 28.6918 29.3244 29.1157 29.0118 29.4282C28.6993 29.7408 28.2754 29.9164 27.8333 29.9164H16.1667C15.7246 29.9164 15.3007 29.7408 14.9882 29.4282C14.6756 29.1157 14.5 28.6918 14.5 28.2497V20.7497Z" stroke="#525866" stroke-width="1.5" stroke-linecap="round" stroke-linejoin="round"/>
<path d="M37.4091 28V16.3636H44.4318V17.6136H38.8182V21.5455H44.0682V22.7955H38.8182V26.75H44.5227V28H37.4091ZM48.1307 22.75V28H46.7898V19.2727H48.0852V20.6364H48.1989C48.4034 20.1932 48.714 19.8371 49.1307 19.5682C49.5473 19.2955 50.0852 19.1591 50.7443 19.1591C51.3352 19.1591 51.8523 19.2803 52.2955 19.5227C52.7386 19.7614 53.0833 20.125 53.3295 20.6136C53.5758 21.0985 53.6989 21.7121 53.6989 22.4545V28H52.358V22.5455C52.358 21.8598 52.1799 21.3258 51.8239 20.9432C51.4678 20.5568 50.9792 20.3636 50.358 20.3636C49.9299 20.3636 49.5473 20.4564 49.2102 20.642C48.8769 20.8277 48.6136 21.0985 48.4205 21.4545C48.2273 21.8106 48.1307 22.2424 48.1307 22.75ZM59.6719 31.4545C59.0241 31.4545 58.4673 31.3712 58.0014 31.2045C57.5355 31.0417 57.1473 30.8258 56.8366 30.5568C56.5298 30.2917 56.2855 30.0076 56.1037 29.7045L57.1719 28.9545C57.2931 29.1136 57.4465 29.2955 57.6321 29.5C57.8177 29.7083 58.0715 29.8883 58.3935 30.0398C58.7192 30.1951 59.1454 30.2727 59.6719 30.2727C60.3764 30.2727 60.9579 30.1023 61.4162 29.7614C61.8745 29.4205 62.1037 28.8864 62.1037 28.1591V26.3864H61.9901C61.8916 26.5455 61.7514 26.7424 61.5696 26.9773C61.3916 27.2083 61.134 27.4148 60.7969 27.5966C60.4635 27.7746 60.0128 27.8636 59.4446 27.8636C58.7401 27.8636 58.1075 27.697 57.5469 27.3636C56.9901 27.0303 56.5488 26.5455 56.223 25.9091C55.901 25.2727 55.7401 24.5 55.7401 23.5909C55.7401 22.697 55.8973 21.9186 56.2116 21.2557C56.526 20.589 56.9635 20.0739 57.5241 19.7102C58.0848 19.3428 58.7325 19.1591 59.4673 19.1591C60.0355 19.1591 60.4863 19.2538 60.8196 19.4432C61.1567 19.6288 61.4143 19.8409 61.5923 20.0795C61.7741 20.3144 61.9143 20.5076 62.0128 20.6591H62.1491V19.2727H63.4446V28.25C63.4446 29 63.2741 29.6098 62.9332 30.0795C62.5961 30.553 62.1416 30.8996 61.5696 31.1193C61.0014 31.3428 60.3688 31.4545 59.6719 31.4545ZM59.6264 26.6591C60.1643 26.6591 60.6188 26.536 60.9901 26.2898C61.3613 26.0436 61.6435 25.6894 61.8366 25.2273C62.0298 24.7652 62.1264 24.2121 62.1264 23.5682C62.1264 22.9394 62.0317 22.3845 61.8423 21.9034C61.6529 21.4223 61.3726 21.0455 61.0014 20.7727C60.6302 20.5 60.1719 20.3636 59.6264 20.3636C59.0582 20.3636 58.5848 20.5076 58.206 20.7955C57.831 21.0833 57.5488 21.4697 57.3594 21.9545C57.1738 22.4394 57.081 22.9773 57.081 23.5682C57.081 24.1742 57.1757 24.7102 57.3651 25.1761C57.5582 25.6383 57.8423 26.0019 58.2173 26.267C58.5961 26.5284 59.0658 26.6591 59.6264 26.6591ZM65.8991 28V19.2727H67.2401V28H65.8991ZM66.581 17.8182C66.3196 17.8182 66.0942 17.7292 65.9048 17.5511C65.7192 17.3731 65.6264 17.1591 65.6264 16.9091C65.6264 16.6591 65.7192 16.4451 65.9048 16.267C66.0942 16.089 66.3196 16 66.581 16C66.8423 16 67.0658 16.089 67.2514 16.267C67.4408 16.4451 67.5355 16.6591 67.5355 16.9091C67.5355 17.1591 67.4408 17.3731 67.2514 17.5511C67.0658 17.7292 66.8423 17.8182 66.581 17.8182ZM71.0369 22.75V28H69.696V19.2727H70.9915V20.6364H71.1051C71.3097 20.1932 71.6203 19.8371 72.0369 19.5682C72.4536 19.2955 72.9915 19.1591 73.6506 19.1591C74.2415 19.1591 74.7585 19.2803 75.2017 19.5227C75.6449 19.7614 75.9896 20.125 76.2358 20.6136C76.482 21.0985 76.6051 21.7121 76.6051 22.4545V28H75.2642V22.5455C75.2642 21.8598 75.0862 21.3258 74.7301 20.9432C74.3741 20.5568 73.8854 20.3636 73.2642 20.3636C72.8362 20.3636 72.4536 20.4564 72.1165 20.642C71.7831 20.8277 71.5199 21.0985 71.3267 21.4545C71.1335 21.8106 71.0369 22.2424 71.0369 22.75ZM82.7145 28.1818C81.8736 28.1818 81.1482 27.9962 80.5384 27.625C79.9323 27.25 79.4645 26.7273 79.1349 26.0568C78.8092 25.3826 78.6463 24.5985 78.6463 23.7045C78.6463 22.8106 78.8092 22.0227 79.1349 21.3409C79.4645 20.6553 79.9228 20.1212 80.5099 19.7386C81.1009 19.3523 81.7902 19.1591 82.5781 19.1591C83.0327 19.1591 83.4815 19.2348 83.9247 19.3864C84.3679 19.5379 84.7713 19.7841 85.1349 20.125C85.4986 20.4621 85.7884 20.9091 86.0043 21.4659C86.2202 22.0227 86.3281 22.7083 86.3281 23.5227V24.0909H79.6009V22.9318H84.9645C84.9645 22.4394 84.866 22 84.669 21.6136C84.4759 21.2273 84.1993 20.9223 83.8395 20.6989C83.4834 20.4754 83.063 20.3636 82.5781 20.3636C82.044 20.3636 81.5819 20.4962 81.1918 20.7614C80.8054 21.0227 80.508 21.3636 80.2997 21.7841C80.0914 22.2045 79.9872 22.6553 79.9872 23.1364V23.9091C79.9872 24.5682 80.1009 25.1269 80.3281 25.5852C80.5592 26.0398 80.8793 26.3864 81.2884 26.625C81.6974 26.8598 82.1728 26.9773 82.7145 26.9773C83.0668 26.9773 83.3849 26.928 83.669 26.8295C83.9569 26.7273 84.205 26.5758 84.4134 26.375C84.6217 26.1705 84.7827 25.9167 84.8963 25.6136L86.1918 25.9773C86.0554 26.4167 85.8262 26.803 85.5043 27.1364C85.1823 27.4659 84.7846 27.7235 84.3111 27.9091C83.8376 28.0909 83.3054 28.1818 82.7145 28.1818ZM92.027 28.1818C91.1861 28.1818 90.4607 27.9962 89.8509 27.625C89.2448 27.25 88.777 26.7273 88.4474 26.0568C88.1217 25.3826 87.9588 24.5985 87.9588 23.7045C87.9588 22.8106 88.1217 22.0227 88.4474 21.3409C88.777 20.6553 89.2353 20.1212 89.8224 19.7386C90.4134 19.3523 91.1027 19.1591 91.8906 19.1591C92.3452 19.1591 92.794 19.2348 93.2372 19.3864C93.6804 19.5379 94.0838 19.7841 94.4474 20.125C94.8111 20.4621 95.1009 20.9091 95.3168 21.4659C95.5327 22.0227 95.6406 22.7083 95.6406 23.5227V24.0909H88.9134V22.9318H94.277C94.277 22.4394 94.1785 22 93.9815 21.6136C93.7884 21.2273 93.5118 20.9223 93.152 20.6989C92.7959 20.4754 92.3755 20.3636 91.8906 20.3636C91.3565 20.3636 90.8944 20.4962 90.5043 20.7614C90.1179 21.0227 89.8205 21.3636 89.6122 21.7841C89.4039 22.2045 89.2997 22.6553 89.2997 23.1364V23.9091C89.2997 24.5682 89.4134 25.1269 89.6406 25.5852C89.8717 26.0398 90.1918 26.3864 90.6009 26.625C91.0099 26.8598 91.4853 26.9773 92.027 26.9773C92.3793 26.9773 92.6974 26.928 92.9815 26.8295C93.2694 26.7273 93.5175 26.5758 93.7259 26.375C93.9342 26.1705 94.0952 25.9167 94.2088 25.6136L95.5043 25.9773C95.3679 26.4167 95.1387 26.803 94.8168 27.1364C94.4948 27.4659 94.0971 27.7235 93.6236 27.9091C93.1501 28.0909 92.6179 28.1818 92.027 28.1818ZM97.6804 28V19.2727H98.9759V20.5909H99.0668C99.2259 20.1591 99.5137 19.8087 99.9304 19.5398C100.347 19.2708 100.817 19.1364 101.339 19.1364C101.438 19.1364 101.561 19.1383 101.709 19.142C101.857 19.1458 101.968 19.1515 102.044 19.1591V20.5227C101.999 20.5114 101.894 20.4943 101.732 20.4716C101.572 20.4451 101.404 20.4318 101.226 20.4318C100.802 20.4318 100.423 20.5208 100.089 20.6989C99.7599 20.8731 99.4986 21.1155 99.3054 21.4261C99.116 21.733 99.0213 22.0833 99.0213 22.4773V28H97.6804ZM103.634 28V19.2727H104.974V28H103.634ZM104.315 17.8182C104.054 17.8182 103.829 17.7292 103.639 17.5511C103.454 17.3731 103.361 17.1591 103.361 16.9091C103.361 16.6591 103.454 16.4451 103.639 16.267C103.829 16.089 104.054 16 104.315 16C104.577 16 104.8 16.089 104.986 16.267C105.175 16.4451 105.27 16.6591 105.27 16.9091C105.27 17.1591 105.175 17.3731 104.986 17.5511C104.8 17.7292 104.577 17.8182 104.315 17.8182ZM108.771 22.75V28H107.43V19.2727H108.726V20.6364H108.839C109.044 20.1932 109.355 19.8371 109.771 19.5682C110.188 19.2955 110.726 19.1591 111.385 19.1591C111.976 19.1591 112.493 19.2803 112.936 19.5227C113.379 19.7614 113.724 20.125 113.97 20.6136C114.216 21.0985 114.339 21.7121 114.339 22.4545V28H112.999V22.5455C112.999 21.8598 112.821 21.3258 112.464 20.9432C112.108 20.5568 111.62 20.3636 110.999 20.3636C110.571 20.3636 110.188 20.4564 109.851 20.642C109.518 20.8277 109.254 21.0985 109.061 21.4545C108.868 21.8106 108.771 22.2424 108.771 22.75ZM120.312 31.4545C119.665 31.4545 119.108 31.3712 118.642 31.2045C118.176 31.0417 117.788 30.8258 117.477 30.5568C117.17 30.2917 116.926 30.0076 116.744 29.7045L117.812 28.9545C117.934 29.1136 118.087 29.2955 118.273 29.5C118.458 29.7083 118.712 29.8883 119.034 30.0398C119.36 30.1951 119.786 30.2727 120.312 30.2727C121.017 30.2727 121.598 30.1023 122.057 29.7614C122.515 29.4205 122.744 28.8864 122.744 28.1591V26.3864H122.631C122.532 26.5455 122.392 26.7424 122.21 26.9773C122.032 27.2083 121.775 27.4148 121.438 27.5966C121.104 27.7746 120.653 27.8636 120.085 27.8636C119.381 27.8636 118.748 27.697 118.188 27.3636C117.631 27.0303 117.189 26.5455 116.864 25.9091C116.542 25.2727 116.381 24.5 116.381 23.5909C116.381 22.697 116.538 21.9186 116.852 21.2557C117.167 20.589 117.604 20.0739 118.165 19.7102C118.725 19.3428 119.373 19.1591 120.108 19.1591C120.676 19.1591 121.127 19.2538 121.46 19.4432C121.797 19.6288 122.055 19.8409 122.233 20.0795C122.415 20.3144 122.555 20.5076 122.653 20.6591H122.79V19.2727H124.085V28.25C124.085 29 123.915 29.6098 123.574 30.0795C123.237 30.553 122.782 30.8996 122.21 31.1193C121.642 31.3428 121.009 31.4545 120.312 31.4545ZM120.267 26.6591C120.805 26.6591 121.259 26.536 121.631 26.2898C122.002 26.0436 122.284 25.6894 122.477 25.2273C122.67 24.7652 122.767 24.2121 122.767 23.5682C122.767 22.9394 122.672 22.3845 122.483 21.9034C122.294 21.4223 122.013 21.0455 121.642 20.7727C121.271 20.5 120.813 20.3636 120.267 20.3636C119.699 20.3636 119.225 20.5076 118.847 20.7955C118.472 21.0833 118.189 21.4697 118 21.9545C117.814 22.4394 117.722 22.9773 117.722 23.5682C117.722 24.1742 117.816 24.7102 118.006 25.1761C118.199 25.6383 118.483 26.0019 118.858 26.267C119.237 26.5284 119.706 26.6591 120.267 26.6591Z" fill="#525866"/>
<path d="M134.5 27L139.5 22L134.5 17" stroke="#525866" stroke-width="1.5" stroke-linecap="round" stroke-linejoin="round"/>
<path d="M158.636 16.3636V28H157.273L150.932 18.8636H150.818V28H149.409V16.3636H150.773L157.136 25.5227H157.25V16.3636H158.636ZM164.933 28.1818C164.092 28.1818 163.367 27.9962 162.757 27.625C162.151 27.25 161.683 26.7273 161.354 26.0568C161.028 25.3826 160.865 24.5985 160.865 23.7045C160.865 22.8106 161.028 22.0227 161.354 21.3409C161.683 20.6553 162.142 20.1212 162.729 19.7386C163.32 19.3523 164.009 19.1591 164.797 19.1591C165.251 19.1591 165.7 19.2348 166.143 19.3864C166.587 19.5379 166.99 19.7841 167.354 20.125C167.717 20.4621 168.007 20.9091 168.223 21.4659C168.439 22.0227 168.547 22.7083 168.547 23.5227V24.0909H161.82V22.9318H167.183C167.183 22.4394 167.085 22 166.888 21.6136C166.695 21.2273 166.418 20.9223 166.058 20.6989C165.702 20.4754 165.282 20.3636 164.797 20.3636C164.263 20.3636 163.801 20.4962 163.411 20.7614C163.024 21.0227 162.727 21.3636 162.518 21.7841C162.31 22.2045 162.206 22.6553 162.206 23.1364V23.9091C162.206 24.5682 162.32 25.1269 162.547 25.5852C162.778 26.0398 163.098 26.3864 163.507 26.625C163.916 26.8598 164.392 26.9773 164.933 26.9773C165.286 26.9773 165.604 26.928 165.888 26.8295C166.176 26.7273 166.424 26.5758 166.632 26.375C166.84 26.1705 167.001 25.9167 167.115 25.6136L168.411 25.9773C168.274 26.4167 168.045 26.803 167.723 27.1364C167.401 27.4659 167.003 27.7235 166.53 27.9091C166.056 28.0909 165.524 28.1818 164.933 28.1818ZM172.564 28L169.905 19.2727H171.314L173.2 25.9545H173.291L175.155 19.2727H176.587L178.428 25.9318H178.518L180.405 19.2727H181.814L179.155 28H177.837L175.928 21.2955H175.791L173.882 28H172.564ZM188.087 28V19.2727H189.428V28H188.087ZM188.768 17.8182C188.507 17.8182 188.282 17.7292 188.092 17.5511C187.907 17.3731 187.814 17.1591 187.814 16.9091C187.814 16.6591 187.907 16.4451 188.092 16.267C188.282 16.089 188.507 16 188.768 16C189.03 16 189.253 16.089 189.439 16.267C189.628 16.4451 189.723 16.6591 189.723 16.9091C189.723 17.1591 189.628 17.3731 189.439 17.5511C189.253 17.7292 189.03 17.8182 188.768 17.8182ZM198.065 21.2273L196.861 21.5682C196.785 21.3674 196.673 21.1723 196.526 20.983C196.382 20.7898 196.185 20.6307 195.935 20.5057C195.685 20.3807 195.365 20.3182 194.974 20.3182C194.44 20.3182 193.995 20.4413 193.639 20.6875C193.287 20.9299 193.111 21.2386 193.111 21.6136C193.111 21.947 193.232 22.2102 193.474 22.4034C193.717 22.5966 194.096 22.7576 194.611 22.8864L195.906 23.2045C196.687 23.3939 197.268 23.6837 197.651 24.0739C198.033 24.4602 198.224 24.9583 198.224 25.5682C198.224 26.0682 198.08 26.5152 197.793 26.9091C197.509 27.303 197.111 27.6136 196.599 27.8409C196.088 28.0682 195.493 28.1818 194.815 28.1818C193.925 28.1818 193.188 27.9886 192.605 27.6023C192.022 27.2159 191.652 26.6515 191.497 25.9091L192.77 25.5909C192.891 26.0606 193.12 26.4129 193.457 26.6477C193.798 26.8826 194.243 27 194.793 27C195.418 27 195.914 26.8674 196.281 26.6023C196.652 26.3333 196.838 26.0114 196.838 25.6364C196.838 25.3333 196.732 25.0795 196.52 24.875C196.308 24.6667 195.982 24.5114 195.543 24.4091L194.088 24.0682C193.289 23.8788 192.702 23.5852 192.327 23.1875C191.955 22.786 191.77 22.2841 191.77 21.6818C191.77 21.1894 191.908 20.7538 192.185 20.375C192.465 19.9962 192.846 19.6989 193.327 19.483C193.812 19.267 194.361 19.1591 194.974 19.1591C195.838 19.1591 196.516 19.3485 197.009 19.7273C197.505 20.1061 197.857 20.6061 198.065 21.2273ZM206.425 21.2273L205.22 21.5682C205.144 21.3674 205.033 21.1723 204.885 20.983C204.741 20.7898 204.544 20.6307 204.294 20.5057C204.044 20.3807 203.724 20.3182 203.334 20.3182C202.8 20.3182 202.355 20.4413 201.999 20.6875C201.646 20.9299 201.47 21.2386 201.47 21.6136C201.47 21.947 201.591 22.2102 201.834 22.4034C202.076 22.5966 202.455 22.7576 202.97 22.8864L204.266 23.2045C205.046 23.3939 205.627 23.6837 206.01 24.0739C206.393 24.4602 206.584 24.9583 206.584 25.5682C206.584 26.0682 206.44 26.5152 206.152 26.9091C205.868 27.303 205.47 27.6136 204.959 27.8409C204.447 28.0682 203.853 28.1818 203.175 28.1818C202.285 28.1818 201.548 27.9886 200.964 27.6023C200.381 27.2159 200.012 26.6515 199.857 25.9091L201.129 25.5909C201.25 26.0606 201.48 26.4129 201.817 26.6477C202.158 26.8826 202.603 27 203.152 27C203.777 27 204.273 26.8674 204.641 26.6023C205.012 26.3333 205.197 26.0114 205.197 25.6364C205.197 25.3333 205.091 25.0795 204.879 24.875C204.667 24.6667 204.341 24.5114 203.902 24.4091L202.447 24.0682C201.648 23.8788 201.061 23.5852 200.686 23.1875C200.315 22.786 200.129 22.2841 200.129 21.6818C200.129 21.1894 200.268 20.7538 200.544 20.375C200.824 19.9962 201.205 19.6989 201.686 19.483C202.171 19.267 202.72 19.1591 203.334 19.1591C204.197 19.1591 204.875 19.3485 205.368 19.7273C205.864 20.1061 206.216 20.6061 206.425 21.2273ZM214.102 24.4318V19.2727H215.443V28H214.102V26.5227H214.011C213.807 26.9659 213.489 27.3428 213.057 27.6534C212.625 27.9602 212.08 28.1136 211.42 28.1136C210.875 28.1136 210.39 27.9943 209.966 27.7557C209.542 27.5133 209.208 27.1496 208.966 26.6648C208.723 26.1761 208.602 25.5606 208.602 24.8182V19.2727H209.943V24.7273C209.943 25.3636 210.121 25.8712 210.477 26.25C210.837 26.6288 211.295 26.8182 211.852 26.8182C212.186 26.8182 212.525 26.733 212.869 26.5625C213.218 26.392 213.509 26.1307 213.744 25.7784C213.983 25.4261 214.102 24.9773 214.102 24.4318ZM221.558 28.1818C220.717 28.1818 219.992 27.9962 219.382 27.625C218.776 27.25 218.308 26.7273 217.979 26.0568C217.653 25.3826 217.49 24.5985 217.49 23.7045C217.49 22.8106 217.653 22.0227 217.979 21.3409C218.308 20.6553 218.767 20.1212 219.354 19.7386C219.945 19.3523 220.634 19.1591 221.422 19.1591C221.876 19.1591 222.325 19.2348 222.768 19.3864C223.212 19.5379 223.615 19.7841 223.979 20.125C224.342 20.4621 224.632 20.9091 224.848 21.4659C225.064 22.0227 225.172 22.7083 225.172 23.5227V24.0909H218.445V22.9318H223.808C223.808 22.4394 223.71 22 223.513 21.6136C223.32 21.2273 223.043 20.9223 222.683 20.6989C222.327 20.4754 221.907 20.3636 221.422 20.3636C220.888 20.3636 220.426 20.4962 220.036 20.7614C219.649 21.0227 219.352 21.3636 219.143 21.7841C218.935 22.2045 218.831 22.6553 218.831 23.1364V23.9091C218.831 24.5682 218.945 25.1269 219.172 25.5852C219.403 26.0398 219.723 26.3864 220.132 26.625C220.541 26.8598 221.017 26.9773 221.558 26.9773C221.911 26.9773 222.229 26.928 222.513 26.8295C222.801 26.7273 223.049 26.5758 223.257 26.375C223.465 26.1705 223.626 25.9167 223.74 25.6136L225.036 25.9773C224.899 26.4167 224.67 26.803 224.348 27.1364C224.026 27.4659 223.628 27.7235 223.155 27.9091C222.681 28.0909 222.149 28.1818 221.558 28.1818Z" fill="#525866"/>
<path d="M12.7955 58.6634V56.4545H24.4006V58.6634H19.9048V71H17.2912V58.6634H12.7955ZM26.5241 71V60.0909H29.0952V71H26.5241ZM27.8168 58.5426C27.4096 58.5426 27.0592 58.4077 26.7656 58.1378C26.4721 57.8632 26.3253 57.5341 26.3253 57.1506C26.3253 56.7623 26.4721 56.4332 26.7656 56.1634C27.0592 55.8887 27.4096 55.7514 27.8168 55.7514C28.2287 55.7514 28.5791 55.8887 28.8679 56.1634C29.1615 56.4332 29.3082 56.7623 29.3082 57.1506C29.3082 57.5341 29.1615 57.8632 28.8679 58.1378C28.5791 58.4077 28.2287 58.5426 27.8168 58.5426ZM37.1864 60.0909V62.0795H30.9151V60.0909H37.1864ZM32.4634 57.4773H35.0344V67.7188C35.0344 68.0644 35.0865 68.3295 35.1907 68.5142C35.2996 68.6941 35.4416 68.8172 35.6168 68.8835C35.792 68.9498 35.9862 68.983 36.1992 68.983C36.3602 68.983 36.507 68.9711 36.6396 68.9474C36.7769 68.9238 36.881 68.9025 36.9521 68.8835L37.3853 70.8935C37.248 70.9408 37.0515 70.9929 36.7958 71.0497C36.5449 71.1065 36.2371 71.1397 35.8725 71.1491C35.2286 71.1681 34.6486 71.071 34.1325 70.858C33.6164 70.6402 33.2068 70.304 32.9038 69.8494C32.6055 69.3949 32.4587 68.8267 32.4634 68.1449V57.4773ZM42.142 56.4545V71H39.571V56.4545H42.142ZM49.6154 71.2131C48.5217 71.2131 47.5771 70.9858 46.7816 70.5312C45.9909 70.072 45.3825 69.4233 44.9563 68.5852C44.5302 67.7424 44.3171 66.7505 44.3171 65.6094C44.3171 64.4872 44.5302 63.5024 44.9563 62.6548C45.3872 61.8026 45.9885 61.1397 46.7603 60.6662C47.5321 60.188 48.4388 59.9489 49.4805 59.9489C50.1528 59.9489 50.7873 60.0578 51.3839 60.2756C51.9852 60.4886 52.5155 60.8201 52.9748 61.2699C53.4388 61.7197 53.8034 62.2926 54.0685 62.9886C54.3337 63.6799 54.4663 64.5038 54.4663 65.4602V66.2486H45.5245V64.5156H52.0018C51.997 64.0232 51.8905 63.5852 51.6822 63.2017C51.4738 62.8134 51.1826 62.508 50.8086 62.2855C50.4393 62.063 50.0084 61.9517 49.516 61.9517C48.9904 61.9517 48.5288 62.0795 48.131 62.3352C47.7333 62.5862 47.4232 62.9176 47.2006 63.3295C46.9828 63.7367 46.8716 64.1842 46.8668 64.6719V66.1847C46.8668 66.8191 46.9828 67.3636 47.2148 67.8182C47.4469 68.268 47.7712 68.6136 48.1879 68.8551C48.6045 69.0919 49.0922 69.2102 49.6509 69.2102C50.025 69.2102 50.3635 69.1581 50.6665 69.054C50.9696 68.9451 51.2324 68.7865 51.4549 68.5781C51.6774 68.3698 51.8455 68.1117 51.9592 67.804L54.3597 68.0739C54.2082 68.7083 53.9194 69.2623 53.4933 69.7358C53.0719 70.2045 52.5321 70.5691 51.8739 70.8295C51.2158 71.0852 50.4629 71.2131 49.6154 71.2131Z" fill="#99A0AE"/>
<path d="M17 111H13.4091V99.3636H17.1591C18.2879 99.3636 19.2538 99.5966 20.0568 100.062C20.8598 100.525 21.4754 101.189 21.9034 102.057C22.3314 102.92 22.5455 103.955 22.5455 105.159C22.5455 106.371 22.3295 107.415 21.8977 108.29C21.4659 109.161 20.8371 109.831 20.0114 110.301C19.1856 110.767 18.1818 111 17 111ZM14.8182 109.75H16.9091C17.8712 109.75 18.6686 109.564 19.3011 109.193C19.9337 108.822 20.4053 108.294 20.7159 107.608C21.0265 106.922 21.1818 106.106 21.1818 105.159C21.1818 104.22 21.0284 103.411 20.7216 102.733C20.4148 102.051 19.9564 101.528 19.3466 101.165C18.7367 100.797 17.9773 100.614 17.0682 100.614H14.8182V109.75ZM28.3864 111.182C27.5455 111.182 26.8201 110.996 26.2102 110.625C25.6042 110.25 25.1364 109.727 24.8068 109.057C24.4811 108.383 24.3182 107.598 24.3182 106.705C24.3182 105.811 24.4811 105.023 24.8068 104.341C25.1364 103.655 25.5947 103.121 26.1818 102.739C26.7727 102.352 27.4621 102.159 28.25 102.159C28.7045 102.159 29.1534 102.235 29.5966 102.386C30.0398 102.538 30.4432 102.784 30.8068 103.125C31.1705 103.462 31.4602 103.909 31.6761 104.466C31.892 105.023 32 105.708 32 106.523V107.091H25.2727V105.932H30.6364C30.6364 105.439 30.5379 105 30.3409 104.614C30.1477 104.227 29.8712 103.922 29.5114 103.699C29.1553 103.475 28.7348 103.364 28.25 103.364C27.7159 103.364 27.2538 103.496 26.8636 103.761C26.4773 104.023 26.1799 104.364 25.9716 104.784C25.7633 105.205 25.6591 105.655 25.6591 106.136V106.909C25.6591 107.568 25.7727 108.127 26 108.585C26.2311 109.04 26.5511 109.386 26.9602 109.625C27.3693 109.86 27.8447 109.977 28.3864 109.977C28.7386 109.977 29.0568 109.928 29.3409 109.83C29.6288 109.727 29.8769 109.576 30.0852 109.375C30.2936 109.17 30.4545 108.917 30.5682 108.614L31.8636 108.977C31.7273 109.417 31.4981 109.803 31.1761 110.136C30.8542 110.466 30.4564 110.723 29.983 110.909C29.5095 111.091 28.9773 111.182 28.3864 111.182ZM40.2216 104.227L39.017 104.568C38.9413 104.367 38.8295 104.172 38.6818 103.983C38.5379 103.79 38.3409 103.631 38.0909 103.506C37.8409 103.381 37.5208 103.318 37.1307 103.318C36.5966 103.318 36.1515 103.441 35.7955 103.688C35.4432 103.93 35.267 104.239 35.267 104.614C35.267 104.947 35.3883 105.21 35.6307 105.403C35.8731 105.597 36.2519 105.758 36.767 105.886L38.0625 106.205C38.8428 106.394 39.4242 106.684 39.8068 107.074C40.1894 107.46 40.3807 107.958 40.3807 108.568C40.3807 109.068 40.2367 109.515 39.9489 109.909C39.6648 110.303 39.267 110.614 38.7557 110.841C38.2443 111.068 37.6496 111.182 36.9716 111.182C36.0814 111.182 35.3447 110.989 34.7614 110.602C34.178 110.216 33.8087 109.652 33.6534 108.909L34.9261 108.591C35.0473 109.061 35.2765 109.413 35.6136 109.648C35.9545 109.883 36.3996 110 36.9489 110C37.5739 110 38.0701 109.867 38.4375 109.602C38.8087 109.333 38.9943 109.011 38.9943 108.636C38.9943 108.333 38.8883 108.08 38.6761 107.875C38.464 107.667 38.1383 107.511 37.6989 107.409L36.2443 107.068C35.4451 106.879 34.858 106.585 34.483 106.188C34.1117 105.786 33.9261 105.284 33.9261 104.682C33.9261 104.189 34.0644 103.754 34.3409 103.375C34.6212 102.996 35.0019 102.699 35.483 102.483C35.9678 102.267 36.517 102.159 37.1307 102.159C37.9943 102.159 38.6723 102.348 39.1648 102.727C39.661 103.106 40.0133 103.606 40.2216 104.227ZM45.9446 111.182C45.1264 111.182 44.4219 110.989 43.831 110.602C43.2401 110.216 42.7855 109.684 42.4673 109.006C42.1491 108.328 41.9901 107.553 41.9901 106.682C41.9901 105.795 42.1529 105.013 42.4787 104.335C42.8082 103.653 43.2666 103.121 43.8537 102.739C44.4446 102.352 45.134 102.159 45.9219 102.159C46.5355 102.159 47.0885 102.273 47.581 102.5C48.0734 102.727 48.4768 103.045 48.7912 103.455C49.1056 103.864 49.3007 104.341 49.3764 104.886H48.0355C47.9332 104.489 47.706 104.136 47.3537 103.83C47.0052 103.519 46.5355 103.364 45.9446 103.364C45.4219 103.364 44.9635 103.5 44.5696 103.773C44.1795 104.042 43.8745 104.422 43.6548 104.915C43.4389 105.403 43.331 105.977 43.331 106.636C43.331 107.311 43.437 107.898 43.6491 108.398C43.8651 108.898 44.1681 109.286 44.5582 109.562C44.9522 109.839 45.4143 109.977 45.9446 109.977C46.2931 109.977 46.6094 109.917 46.8935 109.795C47.1776 109.674 47.4181 109.5 47.6151 109.273C47.812 109.045 47.9522 108.773 48.0355 108.455H49.3764C49.3007 108.97 49.1132 109.434 48.8139 109.847C48.5185 110.256 48.1264 110.581 47.6378 110.824C47.1529 111.062 46.5885 111.182 45.9446 111.182ZM51.3366 111V102.273H52.6321V103.591H52.723C52.8821 103.159 53.17 102.809 53.5866 102.54C54.0033 102.271 54.473 102.136 54.9957 102.136C55.0942 102.136 55.2173 102.138 55.3651 102.142C55.5128 102.146 55.6245 102.152 55.7003 102.159V103.523C55.6548 103.511 55.5507 103.494 55.3878 103.472C55.2287 103.445 55.0601 103.432 54.8821 103.432C54.4579 103.432 54.0791 103.521 53.7457 103.699C53.4162 103.873 53.1548 104.116 52.9616 104.426C52.7723 104.733 52.6776 105.083 52.6776 105.477V111H51.3366ZM57.2898 111V102.273H58.6307V111H57.2898ZM57.9716 100.818C57.7102 100.818 57.4848 100.729 57.2955 100.551C57.1098 100.373 57.017 100.159 57.017 99.9091C57.017 99.6591 57.1098 99.4451 57.2955 99.267C57.4848 99.089 57.7102 99 57.9716 99C58.233 99 58.4564 99.089 58.642 99.267C58.8314 99.4451 58.9261 99.6591 58.9261 99.9091C58.9261 100.159 58.8314 100.373 58.642 100.551C58.4564 100.729 58.233 100.818 57.9716 100.818ZM61.0866 114.273V102.273H62.3821V103.659H62.5412C62.6397 103.508 62.776 103.314 62.9503 103.08C63.1283 102.841 63.3821 102.629 63.7116 102.443C64.045 102.254 64.4957 102.159 65.0639 102.159C65.7988 102.159 66.4465 102.343 67.0071 102.71C67.5677 103.078 68.0052 103.598 68.3196 104.273C68.634 104.947 68.7912 105.742 68.7912 106.659C68.7912 107.583 68.634 108.384 68.3196 109.062C68.0052 109.737 67.5696 110.259 67.0128 110.631C66.456 110.998 65.8139 111.182 65.0866 111.182C64.526 111.182 64.0772 111.089 63.7401 110.903C63.4029 110.714 63.1435 110.5 62.9616 110.261C62.7798 110.019 62.6397 109.818 62.5412 109.659H62.4276V114.273H61.0866ZM62.4048 106.636C62.4048 107.295 62.5014 107.877 62.6946 108.381C62.8878 108.881 63.17 109.273 63.5412 109.557C63.9124 109.837 64.367 109.977 64.9048 109.977C65.4654 109.977 65.9332 109.83 66.3082 109.534C66.687 109.235 66.9711 108.833 67.1605 108.33C67.3537 107.822 67.4503 107.258 67.4503 106.636C67.4503 106.023 67.3556 105.47 67.1662 104.977C66.9806 104.481 66.6984 104.089 66.3196 103.801C65.9446 103.509 65.473 103.364 64.9048 103.364C64.3594 103.364 63.901 103.502 63.5298 103.778C63.1586 104.051 62.8783 104.434 62.6889 104.926C62.4995 105.415 62.4048 105.985 62.4048 106.636ZM74.6321 102.273V103.409H70.1094V102.273H74.6321ZM71.4276 100.182H72.7685V108.5C72.7685 108.879 72.8234 109.163 72.9332 109.352C73.0469 109.538 73.1908 109.663 73.3651 109.727C73.5431 109.788 73.7306 109.818 73.9276 109.818C74.0753 109.818 74.1965 109.811 74.2912 109.795C74.3859 109.777 74.4616 109.761 74.5185 109.75L74.7912 110.955C74.7003 110.989 74.5734 111.023 74.4105 111.057C74.2476 111.095 74.0412 111.114 73.7912 111.114C73.4124 111.114 73.0412 111.032 72.6776 110.869C72.3177 110.706 72.0185 110.458 71.7798 110.125C71.545 109.792 71.4276 109.371 71.4276 108.864V100.182ZM76.6491 111V102.273H77.9901V111H76.6491ZM77.331 100.818C77.0696 100.818 76.8442 100.729 76.6548 100.551C76.4692 100.373 76.3764 100.159 76.3764 99.9091C76.3764 99.6591 76.4692 99.4451 76.6548 99.267C76.8442 99.089 77.0696 99 77.331 99C77.5923 99 77.8158 99.089 78.0014 99.267C78.1908 99.4451 78.2855 99.6591 78.2855 99.9091C78.2855 100.159 78.1908 100.373 78.0014 100.551C77.8158 100.729 77.5923 100.818 77.331 100.818ZM83.9915 111.182C83.2036 111.182 82.5123 110.994 81.9176 110.619C81.3267 110.244 80.8646 109.72 80.5312 109.045C80.2017 108.371 80.0369 107.583 80.0369 106.682C80.0369 105.773 80.2017 104.979 80.5312 104.301C80.8646 103.623 81.3267 103.097 81.9176 102.722C82.5123 102.347 83.2036 102.159 83.9915 102.159C84.7794 102.159 85.4688 102.347 86.0597 102.722C86.6544 103.097 87.1165 103.623 87.446 104.301C87.7794 104.979 87.946 105.773 87.946 106.682C87.946 107.583 87.7794 108.371 87.446 109.045C87.1165 109.72 86.6544 110.244 86.0597 110.619C85.4688 110.994 84.7794 111.182 83.9915 111.182ZM83.9915 109.977C84.59 109.977 85.0824 109.824 85.4688 109.517C85.8551 109.21 86.1411 108.807 86.3267 108.307C86.5123 107.807 86.6051 107.265 86.6051 106.682C86.6051 106.098 86.5123 105.555 86.3267 105.051C86.1411 104.547 85.8551 104.14 85.4688 103.83C85.0824 103.519 84.59 103.364 83.9915 103.364C83.393 103.364 82.9006 103.519 82.5142 103.83C82.1278 104.14 81.8419 104.547 81.6562 105.051C81.4706 105.555 81.3778 106.098 81.3778 106.682C81.3778 107.265 81.4706 107.807 81.6562 108.307C81.8419 108.807 82.1278 109.21 82.5142 109.517C82.9006 109.824 83.393 109.977 83.9915 109.977ZM91.3338 105.75V111H89.9929V102.273H91.2884V103.636H91.402C91.6065 103.193 91.9171 102.837 92.3338 102.568C92.7505 102.295 93.2884 102.159 93.9474 102.159C94.5384 102.159 95.0554 102.28 95.4986 102.523C95.9418 102.761 96.2865 103.125 96.5327 103.614C96.7789 104.098 96.902 104.712 96.902 105.455V111H95.5611V105.545C95.5611 104.86 95.383 104.326 95.027 103.943C94.6709 103.557 94.1823 103.364 93.5611 103.364C93.133 103.364 92.7505 103.456 92.4134 103.642C92.08 103.828 91.8168 104.098 91.6236 104.455C91.4304 104.811 91.3338 105.242 91.3338 105.75Z" fill="#99A0AE"/>
<rect x="12.5" y="200.5" width="92" height="27" rx="3.5" fill="white"/>
<rect x="12.5" y="200.5" width="92" height="27" rx="3.5" stroke="#E1E4EA"/>
<path d="M28.4166 205.818C29.4625 205.616 30.5374 205.616 31.5833 205.818M31.5833 222.182C30.5374 222.384 29.4625 222.384 28.4166 222.182M34.6741 207.101C35.5587 207.7 36.3197 208.464 36.9158 209.351M21.8183 215.583C21.6159 214.537 21.6159 213.462 21.8183 212.417M36.8991 218.674C36.2998 219.559 35.5359 220.32 34.6491 220.916M38.1816 212.417C38.384 213.462 38.384 214.537 38.1816 215.583M23.1008 209.326C23.7002 208.441 24.464 207.68 25.3508 207.084M25.3258 220.899C24.4412 220.3 23.6802 219.536 23.0841 218.649" stroke="#525866" stroke-width="1.5" stroke-linecap="round" stroke-linejoin="round"/>
<path d="M55.7727 211.273C55.7045 210.697 55.428 210.25 54.9432 209.932C54.4583 209.614 53.8636 209.455 53.1591 209.455C52.6439 209.455 52.1932 209.538 51.8068 209.705C51.4242 209.871 51.125 210.1 50.9091 210.392C50.697 210.684 50.5909 211.015 50.5909 211.386C50.5909 211.697 50.6648 211.964 50.8125 212.188C50.964 212.407 51.1572 212.591 51.392 212.739C51.6269 212.883 51.8731 213.002 52.1307 213.097C52.3883 213.187 52.625 213.261 52.8409 213.318L54.0227 213.636C54.3258 213.716 54.6629 213.826 55.0341 213.966C55.4091 214.106 55.767 214.297 56.108 214.54C56.4527 214.778 56.7367 215.085 56.9602 215.46C57.1837 215.835 57.2955 216.295 57.2955 216.841C57.2955 217.47 57.1307 218.038 56.8011 218.545C56.4754 219.053 55.9981 219.456 55.3693 219.756C54.7443 220.055 53.9848 220.205 53.0909 220.205C52.2576 220.205 51.536 220.07 50.9261 219.801C50.3201 219.532 49.8428 219.157 49.4943 218.676C49.1496 218.195 48.9545 217.636 48.9091 217H50.3636C50.4015 217.439 50.5492 217.803 50.8068 218.091C51.0682 218.375 51.3977 218.587 51.7955 218.727C52.197 218.864 52.6288 218.932 53.0909 218.932C53.6288 218.932 54.1117 218.845 54.5398 218.67C54.9678 218.492 55.3068 218.246 55.5568 217.932C55.8068 217.614 55.9318 217.242 55.9318 216.818C55.9318 216.432 55.8239 216.117 55.608 215.875C55.392 215.633 55.108 215.436 54.7557 215.284C54.4034 215.133 54.0227 215 53.6136 214.886L52.1818 214.477C51.2727 214.216 50.553 213.843 50.0227 213.358C49.4924 212.873 49.2273 212.239 49.2273 211.455C49.2273 210.803 49.4034 210.235 49.7557 209.75C50.1117 209.261 50.589 208.883 51.1875 208.614C51.7898 208.341 52.4621 208.205 53.2045 208.205C53.9545 208.205 54.6212 208.339 55.2045 208.608C55.7879 208.873 56.25 209.237 56.5909 209.699C56.9356 210.161 57.1174 210.686 57.1364 211.273H55.7727ZM63.2259 211.273V212.409H58.7031V211.273H63.2259ZM60.0213 209.182H61.3622V217.5C61.3622 217.879 61.4171 218.163 61.527 218.352C61.6406 218.538 61.7846 218.663 61.9588 218.727C62.1368 218.788 62.3243 218.818 62.5213 218.818C62.669 218.818 62.7902 218.811 62.8849 218.795C62.9796 218.777 63.0554 218.761 63.1122 218.75L63.3849 219.955C63.294 219.989 63.1671 220.023 63.0043 220.057C62.8414 220.095 62.6349 220.114 62.3849 220.114C62.0062 220.114 61.6349 220.032 61.2713 219.869C60.9115 219.706 60.6122 219.458 60.3736 219.125C60.1387 218.792 60.0213 218.371 60.0213 217.864V209.182ZM67.8111 220.205C67.258 220.205 66.7562 220.1 66.3054 219.892C65.8546 219.68 65.4967 219.375 65.2315 218.977C64.9664 218.576 64.8338 218.091 64.8338 217.523C64.8338 217.023 64.9323 216.617 65.1293 216.307C65.3262 215.992 65.5895 215.746 65.919 215.568C66.2486 215.39 66.6122 215.258 67.0099 215.17C67.4115 215.08 67.8149 215.008 68.2202 214.955C68.7505 214.886 69.1804 214.835 69.5099 214.801C69.8433 214.763 70.0857 214.701 70.2372 214.614C70.3925 214.527 70.4702 214.375 70.4702 214.159V214.114C70.4702 213.553 70.3168 213.117 70.0099 212.807C69.7069 212.496 69.2467 212.341 68.6293 212.341C67.9891 212.341 67.4872 212.481 67.1236 212.761C66.7599 213.042 66.5043 213.341 66.3565 213.659L65.0838 213.205C65.3111 212.674 65.6141 212.261 65.9929 211.966C66.3755 211.667 66.7921 211.458 67.2429 211.341C67.6974 211.22 68.1444 211.159 68.5838 211.159C68.8641 211.159 69.1861 211.193 69.5497 211.261C69.9171 211.326 70.2713 211.46 70.6122 211.665C70.9569 211.869 71.2429 212.178 71.4702 212.591C71.6974 213.004 71.8111 213.557 71.8111 214.25V220H70.4702V218.818H70.402C70.3111 219.008 70.1596 219.21 69.9474 219.426C69.7353 219.642 69.4531 219.826 69.1009 219.977C68.7486 220.129 68.3187 220.205 67.8111 220.205ZM68.0156 219C68.5459 219 68.9929 218.896 69.3565 218.688C69.724 218.479 70.0005 218.21 70.1861 217.881C70.3755 217.551 70.4702 217.205 70.4702 216.841V215.614C70.4134 215.682 70.2884 215.744 70.0952 215.801C69.9058 215.854 69.6861 215.902 69.4361 215.943C69.1899 215.981 68.9493 216.015 68.7145 216.045C68.4834 216.072 68.2959 216.095 68.152 216.114C67.8035 216.159 67.4777 216.233 67.1747 216.335C66.8755 216.434 66.633 216.583 66.4474 216.784C66.2656 216.981 66.1747 217.25 66.1747 217.591C66.1747 218.057 66.3471 218.409 66.6918 218.648C67.0402 218.883 67.4815 219 68.0156 219ZM78.054 211.273V212.409H73.5312V211.273H78.054ZM74.8494 209.182H76.1903V217.5C76.1903 217.879 76.2453 218.163 76.3551 218.352C76.4688 218.538 76.6127 218.663 76.7869 218.727C76.965 218.788 77.1525 218.818 77.3494 218.818C77.4972 218.818 77.6184 218.811 77.7131 218.795C77.8078 218.777 77.8835 218.761 77.9403 218.75L78.2131 219.955C78.1222 219.989 77.9953 220.023 77.8324 220.057C77.6695 220.095 77.4631 220.114 77.2131 220.114C76.8343 220.114 76.4631 220.032 76.0994 219.869C75.7396 219.706 75.4403 219.458 75.2017 219.125C74.9669 218.792 74.8494 218.371 74.8494 217.864V209.182ZM85.571 216.432V211.273H86.9119V220H85.571V218.523H85.4801C85.2756 218.966 84.9574 219.343 84.5256 219.653C84.0938 219.96 83.5483 220.114 82.8892 220.114C82.3438 220.114 81.8589 219.994 81.4347 219.756C81.0104 219.513 80.6771 219.15 80.4347 218.665C80.1922 218.176 80.071 217.561 80.071 216.818V211.273H81.4119V216.727C81.4119 217.364 81.59 217.871 81.946 218.25C82.3059 218.629 82.7642 218.818 83.321 218.818C83.6544 218.818 83.9934 218.733 84.3381 218.562C84.6866 218.392 84.9782 218.131 85.2131 217.778C85.4517 217.426 85.571 216.977 85.571 216.432ZM95.5497 213.227L94.3452 213.568C94.2694 213.367 94.1577 213.172 94.0099 212.983C93.866 212.79 93.669 212.631 93.419 212.506C93.169 212.381 92.849 212.318 92.4588 212.318C91.9247 212.318 91.4796 212.441 91.1236 212.688C90.7713 212.93 90.5952 213.239 90.5952 213.614C90.5952 213.947 90.7164 214.21 90.9588 214.403C91.2012 214.597 91.58 214.758 92.0952 214.886L93.3906 215.205C94.1709 215.394 94.7524 215.684 95.1349 216.074C95.5175 216.46 95.7088 216.958 95.7088 217.568C95.7088 218.068 95.5649 218.515 95.277 218.909C94.9929 219.303 94.5952 219.614 94.0838 219.841C93.5724 220.068 92.9777 220.182 92.2997 220.182C91.4096 220.182 90.6728 219.989 90.0895 219.602C89.5062 219.216 89.1368 218.652 88.9815 217.909L90.2543 217.591C90.3755 218.061 90.6046 218.413 90.9418 218.648C91.2827 218.883 91.7277 219 92.277 219C92.902 219 93.3982 218.867 93.7656 218.602C94.1368 218.333 94.3224 218.011 94.3224 217.636C94.3224 217.333 94.2164 217.08 94.0043 216.875C93.7921 216.667 93.4664 216.511 93.027 216.409L91.5724 216.068C90.7732 215.879 90.1861 215.585 89.8111 215.188C89.4399 214.786 89.2543 214.284 89.2543 213.682C89.2543 213.189 89.3925 212.754 89.669 212.375C89.9493 211.996 90.33 211.699 90.8111 211.483C91.2959 211.267 91.8452 211.159 92.4588 211.159C93.3224 211.159 94.0005 211.348 94.4929 211.727C94.9891 212.106 95.3414 212.606 95.5497 213.227Z" fill="#525866"/>
<rect x="113.5" y="200.5" width="97" height="27" rx="3.5" fill="white"/>
<rect x="113.5" y="200.5" width="97" height="27" rx="3.5" stroke="#E1E4EA"/>
<path d="M124.75 219H124.758M128.917 219V215.667M133.083 219V212.333M137.25 219V209" stroke="#525866" stroke-width="2" stroke-linecap="round" stroke-linejoin="round"/>
<path d="M150.409 220V208.364H154.341C155.254 208.364 156 208.528 156.58 208.858C157.163 209.184 157.595 209.625 157.875 210.182C158.155 210.739 158.295 211.36 158.295 212.045C158.295 212.731 158.155 213.354 157.875 213.915C157.598 214.475 157.17 214.922 156.591 215.256C156.011 215.585 155.269 215.75 154.364 215.75H151.545V214.5H154.318C154.943 214.5 155.445 214.392 155.824 214.176C156.203 213.96 156.477 213.669 156.648 213.301C156.822 212.93 156.909 212.511 156.909 212.045C156.909 211.58 156.822 211.163 156.648 210.795C156.477 210.428 156.201 210.14 155.818 209.932C155.436 209.72 154.928 209.614 154.295 209.614H151.818V220H150.409ZM160.384 220V211.273H161.679V212.591H161.77C161.929 212.159 162.217 211.809 162.634 211.54C163.05 211.271 163.52 211.136 164.043 211.136C164.141 211.136 164.264 211.138 164.412 211.142C164.56 211.146 164.671 211.152 164.747 211.159V212.523C164.702 212.511 164.598 212.494 164.435 212.472C164.276 212.445 164.107 212.432 163.929 212.432C163.505 212.432 163.126 212.521 162.793 212.699C162.463 212.873 162.202 213.116 162.009 213.426C161.819 213.733 161.724 214.083 161.724 214.477V220H160.384ZM166.337 220V211.273H167.678V220H166.337ZM167.018 209.818C166.757 209.818 166.532 209.729 166.342 209.551C166.157 209.373 166.064 209.159 166.064 208.909C166.064 208.659 166.157 208.445 166.342 208.267C166.532 208.089 166.757 208 167.018 208C167.28 208 167.503 208.089 167.689 208.267C167.878 208.445 167.973 208.659 167.973 208.909C167.973 209.159 167.878 209.373 167.689 209.551C167.503 209.729 167.28 209.818 167.018 209.818ZM173.679 220.182C172.891 220.182 172.2 219.994 171.605 219.619C171.014 219.244 170.552 218.72 170.219 218.045C169.889 217.371 169.724 216.583 169.724 215.682C169.724 214.773 169.889 213.979 170.219 213.301C170.552 212.623 171.014 212.097 171.605 211.722C172.2 211.347 172.891 211.159 173.679 211.159C174.467 211.159 175.156 211.347 175.747 211.722C176.342 212.097 176.804 212.623 177.134 213.301C177.467 213.979 177.634 214.773 177.634 215.682C177.634 216.583 177.467 217.371 177.134 218.045C176.804 218.72 176.342 219.244 175.747 219.619C175.156 219.994 174.467 220.182 173.679 220.182ZM173.679 218.977C174.277 218.977 174.77 218.824 175.156 218.517C175.543 218.21 175.829 217.807 176.014 217.307C176.2 216.807 176.293 216.265 176.293 215.682C176.293 215.098 176.2 214.555 176.014 214.051C175.829 213.547 175.543 213.14 175.156 212.83C174.77 212.519 174.277 212.364 173.679 212.364C173.08 212.364 172.588 212.519 172.202 212.83C171.815 213.14 171.529 213.547 171.344 214.051C171.158 214.555 171.065 215.098 171.065 215.682C171.065 216.265 171.158 216.807 171.344 217.307C171.529 217.807 171.815 218.21 172.202 218.517C172.588 218.824 173.08 218.977 173.679 218.977ZM179.68 220V211.273H180.976V212.591H181.067C181.226 212.159 181.514 211.809 181.93 211.54C182.347 211.271 182.817 211.136 183.339 211.136C183.438 211.136 183.561 211.138 183.709 211.142C183.857 211.146 183.968 211.152 184.044 211.159V212.523C183.999 212.511 183.894 212.494 183.732 212.472C183.572 212.445 183.404 212.432 183.226 212.432C182.802 212.432 182.423 212.521 182.089 212.699C181.76 212.873 181.499 213.116 181.305 213.426C181.116 213.733 181.021 214.083 181.021 214.477V220H179.68ZM185.634 220V211.273H186.974V220H185.634ZM186.315 209.818C186.054 209.818 185.829 209.729 185.639 209.551C185.454 209.373 185.361 209.159 185.361 208.909C185.361 208.659 185.454 208.445 185.639 208.267C185.829 208.089 186.054 208 186.315 208C186.577 208 186.8 208.089 186.986 208.267C187.175 208.445 187.27 208.659 187.27 208.909C187.27 209.159 187.175 209.373 186.986 209.551C186.8 209.729 186.577 209.818 186.315 209.818ZM193.226 211.273V212.409H188.703V211.273H193.226ZM190.021 209.182H191.362V217.5C191.362 217.879 191.417 218.163 191.527 218.352C191.641 218.538 191.785 218.663 191.959 218.727C192.137 218.788 192.324 218.818 192.521 218.818C192.669 218.818 192.79 218.811 192.885 218.795C192.98 218.777 193.055 218.761 193.112 218.75L193.385 219.955C193.294 219.989 193.167 220.023 193.004 220.057C192.841 220.095 192.635 220.114 192.385 220.114C192.006 220.114 191.635 220.032 191.271 219.869C190.911 219.706 190.612 219.458 190.374 219.125C190.139 218.792 190.021 218.371 190.021 217.864V209.182ZM196.107 223.273C195.879 223.273 195.677 223.254 195.499 223.216C195.321 223.182 195.197 223.148 195.129 223.114L195.47 221.932C195.796 222.015 196.084 222.045 196.334 222.023C196.584 222 196.805 221.888 196.999 221.688C197.196 221.491 197.375 221.17 197.538 220.727L197.788 220.045L194.561 211.273H196.016L198.425 218.227H198.516L200.925 211.273H202.379L198.675 221.273C198.508 221.723 198.302 222.097 198.055 222.392C197.809 222.691 197.523 222.913 197.197 223.057C196.875 223.201 196.512 223.273 196.107 223.273Z" fill="#525866"/>
<rect x="219.5" y="200.5" width="113" height="27" rx="3.5" fill="white"/>
<rect x="219.5" y="200.5" width="113" height="27" rx="3.5" stroke="#E1E4EA"/>
<path d="M242 221.5C242 220.174 241.473 218.902 240.536 217.964C239.598 217.027 238.326 216.5 237 216.5M237 216.5C235.674 216.5 234.402 217.027 233.464 217.964C232.527 218.902 232 220.174 232 221.5M237 216.5C238.841 216.5 240.333 215.008 240.333 213.167C240.333 211.326 238.841 209.833 237 209.833C235.159 209.833 233.667 211.326 233.667 213.167C233.667 215.008 235.159 216.5 237 216.5ZM231.167 206.5H242.833C243.754 206.5 244.5 207.246 244.5 208.167V219.833C244.5 220.754 243.754 221.5 242.833 221.5H231.167C230.246 221.5 229.5 220.754 229.5 219.833V208.167C229.5 207.246 230.246 206.5 231.167 206.5Z" stroke="#525866" stroke-width="1.5" stroke-linecap="round" stroke-linejoin="round"/>
<path d="M256.886 220H255.409L259.682 208.364H261.136L265.409 220H263.932L260.455 210.205H260.364L256.886 220ZM257.432 215.455H263.386V216.705H257.432V215.455ZM273.222 213.227L272.017 213.568C271.941 213.367 271.83 213.172 271.682 212.983C271.538 212.79 271.341 212.631 271.091 212.506C270.841 212.381 270.521 212.318 270.131 212.318C269.597 212.318 269.152 212.441 268.795 212.688C268.443 212.93 268.267 213.239 268.267 213.614C268.267 213.947 268.388 214.21 268.631 214.403C268.873 214.597 269.252 214.758 269.767 214.886L271.062 215.205C271.843 215.394 272.424 215.684 272.807 216.074C273.189 216.46 273.381 216.958 273.381 217.568C273.381 218.068 273.237 218.515 272.949 218.909C272.665 219.303 272.267 219.614 271.756 219.841C271.244 220.068 270.65 220.182 269.972 220.182C269.081 220.182 268.345 219.989 267.761 219.602C267.178 219.216 266.809 218.652 266.653 217.909L267.926 217.591C268.047 218.061 268.277 218.413 268.614 218.648C268.955 218.883 269.4 219 269.949 219C270.574 219 271.07 218.867 271.438 218.602C271.809 218.333 271.994 218.011 271.994 217.636C271.994 217.333 271.888 217.08 271.676 216.875C271.464 216.667 271.138 216.511 270.699 216.409L269.244 216.068C268.445 215.879 267.858 215.585 267.483 215.188C267.112 214.786 266.926 214.284 266.926 213.682C266.926 213.189 267.064 212.754 267.341 212.375C267.621 211.996 268.002 211.699 268.483 211.483C268.968 211.267 269.517 211.159 270.131 211.159C270.994 211.159 271.672 211.348 272.165 211.727C272.661 212.106 273.013 212.606 273.222 213.227ZM281.581 213.227L280.376 213.568C280.301 213.367 280.189 213.172 280.041 212.983C279.897 212.79 279.7 212.631 279.45 212.506C279.2 212.381 278.88 212.318 278.49 212.318C277.956 212.318 277.511 212.441 277.155 212.688C276.803 212.93 276.626 213.239 276.626 213.614C276.626 213.947 276.748 214.21 276.99 214.403C277.232 214.597 277.611 214.758 278.126 214.886L279.422 215.205C280.202 215.394 280.784 215.684 281.166 216.074C281.549 216.46 281.74 216.958 281.74 217.568C281.74 218.068 281.596 218.515 281.308 218.909C281.024 219.303 280.626 219.614 280.115 219.841C279.604 220.068 279.009 220.182 278.331 220.182C277.441 220.182 276.704 219.989 276.121 219.602C275.537 219.216 275.168 218.652 275.013 217.909L276.286 217.591C276.407 218.061 276.636 218.413 276.973 218.648C277.314 218.883 277.759 219 278.308 219C278.933 219 279.429 218.867 279.797 218.602C280.168 218.333 280.354 218.011 280.354 217.636C280.354 217.333 280.248 217.08 280.036 216.875C279.823 216.667 279.498 216.511 279.058 216.409L277.604 216.068C276.804 215.879 276.217 215.585 275.842 215.188C275.471 214.786 275.286 214.284 275.286 213.682C275.286 213.189 275.424 212.754 275.7 212.375C275.981 211.996 276.361 211.699 276.842 211.483C277.327 211.267 277.876 211.159 278.49 211.159C279.354 211.159 280.032 211.348 280.524 211.727C281.02 212.106 281.373 212.606 281.581 213.227ZM283.759 220V211.273H285.099V220H283.759ZM284.44 209.818C284.179 209.818 283.954 209.729 283.764 209.551C283.579 209.373 283.486 209.159 283.486 208.909C283.486 208.659 283.579 208.445 283.764 208.267C283.954 208.089 284.179 208 284.44 208C284.702 208 284.925 208.089 285.111 208.267C285.3 208.445 285.395 208.659 285.395 208.909C285.395 209.159 285.3 209.373 285.111 209.551C284.925 209.729 284.702 209.818 284.44 209.818ZM291.078 223.455C290.43 223.455 289.874 223.371 289.408 223.205C288.942 223.042 288.554 222.826 288.243 222.557C287.936 222.292 287.692 222.008 287.51 221.705L288.578 220.955C288.699 221.114 288.853 221.295 289.038 221.5C289.224 221.708 289.478 221.888 289.8 222.04C290.125 222.195 290.552 222.273 291.078 222.273C291.783 222.273 292.364 222.102 292.822 221.761C293.281 221.42 293.51 220.886 293.51 220.159V218.386H293.396C293.298 218.545 293.158 218.742 292.976 218.977C292.798 219.208 292.54 219.415 292.203 219.597C291.87 219.775 291.419 219.864 290.851 219.864C290.146 219.864 289.514 219.697 288.953 219.364C288.396 219.03 287.955 218.545 287.629 217.909C287.307 217.273 287.146 216.5 287.146 215.591C287.146 214.697 287.304 213.919 287.618 213.256C287.932 212.589 288.37 212.074 288.93 211.71C289.491 211.343 290.139 211.159 290.874 211.159C291.442 211.159 291.893 211.254 292.226 211.443C292.563 211.629 292.821 211.841 292.999 212.08C293.18 212.314 293.321 212.508 293.419 212.659H293.555V211.273H294.851V220.25C294.851 221 294.68 221.61 294.339 222.08C294.002 222.553 293.548 222.9 292.976 223.119C292.408 223.343 291.775 223.455 291.078 223.455ZM291.033 218.659C291.571 218.659 292.025 218.536 292.396 218.29C292.768 218.044 293.05 217.689 293.243 217.227C293.436 216.765 293.533 216.212 293.533 215.568C293.533 214.939 293.438 214.384 293.249 213.903C293.059 213.422 292.779 213.045 292.408 212.773C292.036 212.5 291.578 212.364 291.033 212.364C290.464 212.364 289.991 212.508 289.612 212.795C289.237 213.083 288.955 213.47 288.766 213.955C288.58 214.439 288.487 214.977 288.487 215.568C288.487 216.174 288.582 216.71 288.771 217.176C288.964 217.638 289.249 218.002 289.624 218.267C290.002 218.528 290.472 218.659 291.033 218.659ZM298.646 214.75V220H297.305V211.273H298.601V212.636H298.714C298.919 212.193 299.23 211.837 299.646 211.568C300.063 211.295 300.601 211.159 301.26 211.159C301.851 211.159 302.368 211.28 302.811 211.523C303.254 211.761 303.599 212.125 303.845 212.614C304.091 213.098 304.214 213.712 304.214 214.455V220H302.874V214.545C302.874 213.86 302.696 213.326 302.339 212.943C301.983 212.557 301.495 212.364 300.874 212.364C300.446 212.364 300.063 212.456 299.726 212.642C299.393 212.828 299.129 213.098 298.936 213.455C298.743 213.811 298.646 214.242 298.646 214.75ZM310.324 220.182C309.483 220.182 308.758 219.996 308.148 219.625C307.542 219.25 307.074 218.727 306.744 218.057C306.419 217.383 306.256 216.598 306.256 215.705C306.256 214.811 306.419 214.023 306.744 213.341C307.074 212.655 307.532 212.121 308.119 211.739C308.71 211.352 309.4 211.159 310.188 211.159C310.642 211.159 311.091 211.235 311.534 211.386C311.977 211.538 312.381 211.784 312.744 212.125C313.108 212.462 313.398 212.909 313.614 213.466C313.83 214.023 313.938 214.708 313.938 215.523V216.091H307.21V214.932H312.574C312.574 214.439 312.475 214 312.278 213.614C312.085 213.227 311.809 212.922 311.449 212.699C311.093 212.475 310.672 212.364 310.188 212.364C309.653 212.364 309.191 212.496 308.801 212.761C308.415 213.023 308.117 213.364 307.909 213.784C307.701 214.205 307.597 214.655 307.597 215.136V215.909C307.597 216.568 307.71 217.127 307.938 217.585C308.169 218.04 308.489 218.386 308.898 218.625C309.307 218.86 309.782 218.977 310.324 218.977C310.676 218.977 310.994 218.928 311.278 218.83C311.566 218.727 311.814 218.576 312.023 218.375C312.231 218.17 312.392 217.917 312.506 217.614L313.801 217.977C313.665 218.417 313.436 218.803 313.114 219.136C312.792 219.466 312.394 219.723 311.92 219.909C311.447 220.091 310.915 220.182 310.324 220.182ZM319.636 220.182C318.795 220.182 318.07 219.996 317.46 219.625C316.854 219.25 316.386 218.727 316.057 218.057C315.731 217.383 315.568 216.598 315.568 215.705C315.568 214.811 315.731 214.023 316.057 213.341C316.386 212.655 316.845 212.121 317.432 211.739C318.023 211.352 318.712 211.159 319.5 211.159C319.955 211.159 320.403 211.235 320.847 211.386C321.29 211.538 321.693 211.784 322.057 212.125C322.42 212.462 322.71 212.909 322.926 213.466C323.142 214.023 323.25 214.708 323.25 215.523V216.091H316.523V214.932H321.886C321.886 214.439 321.788 214 321.591 213.614C321.398 213.227 321.121 212.922 320.761 212.699C320.405 212.475 319.985 212.364 319.5 212.364C318.966 212.364 318.504 212.496 318.114 212.761C317.727 213.023 317.43 213.364 317.222 213.784C317.013 214.205 316.909 214.655 316.909 215.136V215.909C316.909 216.568 317.023 217.127 317.25 217.585C317.481 218.04 317.801 218.386 318.21 218.625C318.619 218.86 319.095 218.977 319.636 218.977C319.989 218.977 320.307 218.928 320.591 218.83C320.879 218.727 321.127 218.576 321.335 218.375C321.544 218.17 321.705 217.917 321.818 217.614L323.114 217.977C322.977 218.417 322.748 218.803 322.426 219.136C322.104 219.466 321.706 219.723 321.233 219.909C320.759 220.091 320.227 220.182 319.636 220.182Z" fill="#525866"/>
<rect x="341.5" y="200.5" width="105" height="27" rx="3.5" fill="white"/>
<rect x="341.5" y="200.5" width="105" height="27" rx="3.5" stroke="#E1E4EA"/>
<path d="M366.5 217.333V210.667C366.5 210.374 366.423 210.087 366.276 209.834C366.13 209.581 365.92 209.371 365.667 209.225L359.833 205.892C359.58 205.745 359.293 205.668 359 205.668C358.707 205.668 358.42 205.745 358.167 205.892L352.333 209.225C352.08 209.371 351.87 209.581 351.724 209.834C351.577 210.087 351.5 210.374 351.5 210.667V217.333C351.5 217.626 351.577 217.913 351.724 218.166C351.87 218.419 352.08 218.629 352.333 218.775L358.167 222.108C358.42 222.255 358.707 222.332 359 222.332C359.293 222.332 359.58 222.255 359.833 222.108L365.667 218.775C365.92 218.629 366.13 218.419 366.276 218.166C366.423 217.913 366.5 217.626 366.5 217.333Z" stroke="#525866" stroke-width="1.5" stroke-linecap="round" stroke-linejoin="round"/>
<path d="M378.409 220V208.364H382.341C383.254 208.364 384 208.528 384.58 208.858C385.163 209.184 385.595 209.625 385.875 210.182C386.155 210.739 386.295 211.36 386.295 212.045C386.295 212.731 386.155 213.354 385.875 213.915C385.598 214.475 385.17 214.922 384.591 215.256C384.011 215.585 383.269 215.75 382.364 215.75H379.545V214.5H382.318C382.943 214.5 383.445 214.392 383.824 214.176C384.203 213.96 384.477 213.669 384.648 213.301C384.822 212.93 384.909 212.511 384.909 212.045C384.909 211.58 384.822 211.163 384.648 210.795C384.477 210.428 384.201 210.14 383.818 209.932C383.436 209.72 382.928 209.614 382.295 209.614H379.818V220H378.409ZM388.384 220V211.273H389.679V212.591H389.77C389.929 212.159 390.217 211.809 390.634 211.54C391.05 211.271 391.52 211.136 392.043 211.136C392.141 211.136 392.264 211.138 392.412 211.142C392.56 211.146 392.671 211.152 392.747 211.159V212.523C392.702 212.511 392.598 212.494 392.435 212.472C392.276 212.445 392.107 212.432 391.929 212.432C391.505 212.432 391.126 212.521 390.793 212.699C390.463 212.873 390.202 213.116 390.009 213.426C389.819 213.733 389.724 214.083 389.724 214.477V220H388.384ZM397.616 220.182C396.829 220.182 396.137 219.994 395.543 219.619C394.952 219.244 394.49 218.72 394.156 218.045C393.827 217.371 393.662 216.583 393.662 215.682C393.662 214.773 393.827 213.979 394.156 213.301C394.49 212.623 394.952 212.097 395.543 211.722C396.137 211.347 396.829 211.159 397.616 211.159C398.404 211.159 399.094 211.347 399.685 211.722C400.279 212.097 400.741 212.623 401.071 213.301C401.404 213.979 401.571 214.773 401.571 215.682C401.571 216.583 401.404 217.371 401.071 218.045C400.741 218.72 400.279 219.244 399.685 219.619C399.094 219.994 398.404 220.182 397.616 220.182ZM397.616 218.977C398.215 218.977 398.707 218.824 399.094 218.517C399.48 218.21 399.766 217.807 399.952 217.307C400.137 216.807 400.23 216.265 400.23 215.682C400.23 215.098 400.137 214.555 399.952 214.051C399.766 213.547 399.48 213.14 399.094 212.83C398.707 212.519 398.215 212.364 397.616 212.364C397.018 212.364 396.526 212.519 396.139 212.83C395.753 213.14 395.467 213.547 395.281 214.051C395.096 214.555 395.003 215.098 395.003 215.682C395.003 216.265 395.096 216.807 395.281 217.307C395.467 217.807 395.753 218.21 396.139 218.517C396.526 218.824 397.018 218.977 397.616 218.977ZM403.618 211.273H404.959V220.636C404.959 221.174 404.866 221.64 404.68 222.034C404.499 222.428 404.222 222.733 403.851 222.949C403.483 223.165 403.019 223.273 402.459 223.273C402.413 223.273 402.368 223.273 402.322 223.273C402.277 223.273 402.232 223.273 402.186 223.273V222.023C402.232 222.023 402.273 222.023 402.311 222.023C402.349 222.023 402.391 222.023 402.436 222.023C402.845 222.023 403.144 221.902 403.334 221.659C403.523 221.42 403.618 221.08 403.618 220.636V211.273ZM404.277 209.818C404.016 209.818 403.79 209.729 403.601 209.551C403.415 209.373 403.322 209.159 403.322 208.909C403.322 208.659 403.415 208.445 403.601 208.267C403.79 208.089 404.016 208 404.277 208C404.538 208 404.762 208.089 404.947 208.267C405.137 208.445 405.232 208.659 405.232 208.909C405.232 209.159 405.137 209.373 404.947 209.551C404.762 209.729 404.538 209.818 404.277 209.818ZM411.074 220.182C410.233 220.182 409.508 219.996 408.898 219.625C408.292 219.25 407.824 218.727 407.494 218.057C407.169 217.383 407.006 216.598 407.006 215.705C407.006 214.811 407.169 214.023 407.494 213.341C407.824 212.655 408.282 212.121 408.869 211.739C409.46 211.352 410.15 211.159 410.938 211.159C411.392 211.159 411.841 211.235 412.284 211.386C412.727 211.538 413.131 211.784 413.494 212.125C413.858 212.462 414.148 212.909 414.364 213.466C414.58 214.023 414.688 214.708 414.688 215.523V216.091H407.96V214.932H413.324C413.324 214.439 413.225 214 413.028 213.614C412.835 213.227 412.559 212.922 412.199 212.699C411.843 212.475 411.422 212.364 410.938 212.364C410.403 212.364 409.941 212.496 409.551 212.761C409.165 213.023 408.867 213.364 408.659 213.784C408.451 214.205 408.347 214.655 408.347 215.136V215.909C408.347 216.568 408.46 217.127 408.688 217.585C408.919 218.04 409.239 218.386 409.648 218.625C410.057 218.86 410.532 218.977 411.074 218.977C411.426 218.977 411.744 218.928 412.028 218.83C412.316 218.727 412.564 218.576 412.773 218.375C412.981 218.17 413.142 217.917 413.256 217.614L414.551 217.977C414.415 218.417 414.186 218.803 413.864 219.136C413.542 219.466 413.144 219.723 412.67 219.909C412.197 220.091 411.665 220.182 411.074 220.182ZM420.273 220.182C419.455 220.182 418.75 219.989 418.159 219.602C417.568 219.216 417.114 218.684 416.795 218.006C416.477 217.328 416.318 216.553 416.318 215.682C416.318 214.795 416.481 214.013 416.807 213.335C417.136 212.653 417.595 212.121 418.182 211.739C418.773 211.352 419.462 211.159 420.25 211.159C420.864 211.159 421.417 211.273 421.909 211.5C422.402 211.727 422.805 212.045 423.119 212.455C423.434 212.864 423.629 213.341 423.705 213.886H422.364C422.261 213.489 422.034 213.136 421.682 212.83C421.333 212.519 420.864 212.364 420.273 212.364C419.75 212.364 419.292 212.5 418.898 212.773C418.508 213.042 418.203 213.422 417.983 213.915C417.767 214.403 417.659 214.977 417.659 215.636C417.659 216.311 417.765 216.898 417.977 217.398C418.193 217.898 418.496 218.286 418.886 218.562C419.28 218.839 419.742 218.977 420.273 218.977C420.621 218.977 420.938 218.917 421.222 218.795C421.506 218.674 421.746 218.5 421.943 218.273C422.14 218.045 422.28 217.773 422.364 217.455H423.705C423.629 217.97 423.441 218.434 423.142 218.847C422.847 219.256 422.455 219.581 421.966 219.824C421.481 220.062 420.917 220.182 420.273 220.182ZM429.46 211.273V212.409H424.938V211.273H429.46ZM426.256 209.182H427.597V217.5C427.597 217.879 427.652 218.163 427.761 218.352C427.875 218.538 428.019 218.663 428.193 218.727C428.371 218.788 428.559 218.818 428.756 218.818C428.903 218.818 429.025 218.811 429.119 218.795C429.214 218.777 429.29 218.761 429.347 218.75L429.619 219.955C429.528 219.989 429.402 220.023 429.239 220.057C429.076 220.095 428.869 220.114 428.619 220.114C428.241 220.114 427.869 220.032 427.506 219.869C427.146 219.706 426.847 219.458 426.608 219.125C426.373 218.792 426.256 218.371 426.256 217.864V209.182ZM437.503 213.227L436.298 213.568C436.223 213.367 436.111 213.172 435.963 212.983C435.819 212.79 435.622 212.631 435.372 212.506C435.122 212.381 434.802 212.318 434.412 212.318C433.878 212.318 433.433 212.441 433.077 212.688C432.724 212.93 432.548 213.239 432.548 213.614C432.548 213.947 432.67 214.21 432.912 214.403C433.154 214.597 433.533 214.758 434.048 214.886L435.344 215.205C436.124 215.394 436.705 215.684 437.088 216.074C437.471 216.46 437.662 216.958 437.662 217.568C437.662 218.068 437.518 218.515 437.23 218.909C436.946 219.303 436.548 219.614 436.037 219.841C435.526 220.068 434.931 220.182 434.253 220.182C433.363 220.182 432.626 219.989 432.043 219.602C431.459 219.216 431.09 218.652 430.935 217.909L432.207 217.591C432.329 218.061 432.558 218.413 432.895 218.648C433.236 218.883 433.681 219 434.23 219C434.855 219 435.351 218.867 435.719 218.602C436.09 218.333 436.276 218.011 436.276 217.636C436.276 217.333 436.17 217.08 435.957 216.875C435.745 216.667 435.42 216.511 434.98 216.409L433.526 216.068C432.726 215.879 432.139 215.585 431.764 215.188C431.393 214.786 431.207 214.284 431.207 213.682C431.207 213.189 431.346 212.754 431.622 212.375C431.902 211.996 432.283 211.699 432.764 211.483C433.249 211.267 433.798 211.159 434.412 211.159C435.276 211.159 435.954 211.348 436.446 211.727C436.942 212.106 437.295 212.606 437.503 213.227Z" fill="#525866"/>
<rect x="455.5" y="200.5" width="93" height="27" rx="3.5" fill="white"/>
<rect x="455.5" y="200.5" width="93" height="27" rx="3.5" stroke="#E1E4EA"/>
<path d="M468.414 212.333C468.644 212.333 468.831 212.147 468.831 211.917C468.831 211.687 468.644 211.5 468.414 211.5C468.184 211.5 467.998 211.687 467.998 211.917C467.998 212.147 468.184 212.333 468.414 212.333Z" fill="black"/>
<path d="M475.498 208.167L480.748 213.417C480.934 213.602 481.082 213.823 481.183 214.066C481.284 214.309 481.336 214.57 481.336 214.833C481.336 215.097 481.284 215.357 481.183 215.6C481.082 215.843 480.934 216.064 480.748 216.25L477.164 219.833M470.986 208.655C470.673 208.342 470.25 208.167 469.808 208.167H465.498C465.277 208.167 465.065 208.254 464.908 208.411C464.752 208.567 464.664 208.779 464.664 209V213.31C464.664 213.752 464.84 214.176 465.153 214.488L469.906 219.242C470.285 219.618 470.797 219.829 471.331 219.829C471.865 219.829 472.377 219.618 472.756 219.242L475.739 216.258C476.116 215.88 476.327 215.367 476.327 214.833C476.327 214.299 476.116 213.787 475.739 213.408L470.986 208.655ZM468.831 211.917C468.831 212.147 468.644 212.333 468.414 212.333C468.184 212.333 467.998 212.147 467.998 211.917C467.998 211.687 468.184 211.5 468.414 211.5C468.644 211.5 468.831 211.687 468.831 211.917Z" stroke="#525866" stroke-width="1.5" stroke-linecap="round" stroke-linejoin="round"/>
<path d="M492.409 220V208.364H493.818V218.75H499.227V220H492.409ZM503.795 220.205C503.242 220.205 502.741 220.1 502.29 219.892C501.839 219.68 501.481 219.375 501.216 218.977C500.951 218.576 500.818 218.091 500.818 217.523C500.818 217.023 500.917 216.617 501.114 216.307C501.311 215.992 501.574 215.746 501.903 215.568C502.233 215.39 502.597 215.258 502.994 215.17C503.396 215.08 503.799 215.008 504.205 214.955C504.735 214.886 505.165 214.835 505.494 214.801C505.828 214.763 506.07 214.701 506.222 214.614C506.377 214.527 506.455 214.375 506.455 214.159V214.114C506.455 213.553 506.301 213.117 505.994 212.807C505.691 212.496 505.231 212.341 504.614 212.341C503.973 212.341 503.472 212.481 503.108 212.761C502.744 213.042 502.489 213.341 502.341 213.659L501.068 213.205C501.295 212.674 501.598 212.261 501.977 211.966C502.36 211.667 502.777 211.458 503.227 211.341C503.682 211.22 504.129 211.159 504.568 211.159C504.848 211.159 505.17 211.193 505.534 211.261C505.902 211.326 506.256 211.46 506.597 211.665C506.941 211.869 507.227 212.178 507.455 212.591C507.682 213.004 507.795 213.557 507.795 214.25V220H506.455V218.818H506.386C506.295 219.008 506.144 219.21 505.932 219.426C505.72 219.642 505.438 219.826 505.085 219.977C504.733 220.129 504.303 220.205 503.795 220.205ZM504 219C504.53 219 504.977 218.896 505.341 218.688C505.708 218.479 505.985 218.21 506.17 217.881C506.36 217.551 506.455 217.205 506.455 216.841V215.614C506.398 215.682 506.273 215.744 506.08 215.801C505.89 215.854 505.67 215.902 505.42 215.943C505.174 215.981 504.934 216.015 504.699 216.045C504.468 216.072 504.28 216.095 504.136 216.114C503.788 216.159 503.462 216.233 503.159 216.335C502.86 216.434 502.617 216.583 502.432 216.784C502.25 216.981 502.159 217.25 502.159 217.591C502.159 218.057 502.331 218.409 502.676 218.648C503.025 218.883 503.466 219 504 219ZM510.425 220V208.364H511.766V212.659H511.879C511.978 212.508 512.114 212.314 512.288 212.08C512.466 211.841 512.72 211.629 513.05 211.443C513.383 211.254 513.834 211.159 514.402 211.159C515.137 211.159 515.785 211.343 516.345 211.71C516.906 212.078 517.343 212.598 517.658 213.273C517.972 213.947 518.129 214.742 518.129 215.659C518.129 216.583 517.972 217.384 517.658 218.062C517.343 218.737 516.908 219.259 516.351 219.631C515.794 219.998 515.152 220.182 514.425 220.182C513.864 220.182 513.415 220.089 513.078 219.903C512.741 219.714 512.482 219.5 512.3 219.261C512.118 219.019 511.978 218.818 511.879 218.659H511.72V220H510.425ZM511.743 215.636C511.743 216.295 511.839 216.877 512.033 217.381C512.226 217.881 512.508 218.273 512.879 218.557C513.25 218.837 513.705 218.977 514.243 218.977C514.804 218.977 515.271 218.83 515.646 218.534C516.025 218.235 516.309 217.833 516.499 217.33C516.692 216.822 516.788 216.258 516.788 215.636C516.788 215.023 516.694 214.47 516.504 213.977C516.319 213.481 516.036 213.089 515.658 212.801C515.283 212.509 514.811 212.364 514.243 212.364C513.697 212.364 513.239 212.502 512.868 212.778C512.497 213.051 512.216 213.434 512.027 213.926C511.838 214.415 511.743 214.985 511.743 215.636ZM523.839 220.182C522.999 220.182 522.273 219.996 521.663 219.625C521.057 219.25 520.589 218.727 520.26 218.057C519.934 217.383 519.771 216.598 519.771 215.705C519.771 214.811 519.934 214.023 520.26 213.341C520.589 212.655 521.048 212.121 521.635 211.739C522.226 211.352 522.915 211.159 523.703 211.159C524.158 211.159 524.607 211.235 525.05 211.386C525.493 211.538 525.896 211.784 526.26 212.125C526.624 212.462 526.913 212.909 527.129 213.466C527.345 214.023 527.453 214.708 527.453 215.523V216.091H520.726V214.932H526.089C526.089 214.439 525.991 214 525.794 213.614C525.601 213.227 525.324 212.922 524.964 212.699C524.608 212.475 524.188 212.364 523.703 212.364C523.169 212.364 522.707 212.496 522.317 212.761C521.93 213.023 521.633 213.364 521.425 213.784C521.216 214.205 521.112 214.655 521.112 215.136V215.909C521.112 216.568 521.226 217.127 521.453 217.585C521.684 218.04 522.004 218.386 522.413 218.625C522.822 218.86 523.298 218.977 523.839 218.977C524.192 218.977 524.51 218.928 524.794 218.83C525.082 218.727 525.33 218.576 525.538 218.375C525.747 218.17 525.908 217.917 526.021 217.614L527.317 217.977C527.18 218.417 526.951 218.803 526.629 219.136C526.307 219.466 525.91 219.723 525.436 219.909C524.963 220.091 524.43 220.182 523.839 220.182ZM530.834 208.364V220H529.493V208.364H530.834ZM539.472 213.227L538.267 213.568C538.191 213.367 538.08 213.172 537.932 212.983C537.788 212.79 537.591 212.631 537.341 212.506C537.091 212.381 536.771 212.318 536.381 212.318C535.847 212.318 535.402 212.441 535.045 212.688C534.693 212.93 534.517 213.239 534.517 213.614C534.517 213.947 534.638 214.21 534.881 214.403C535.123 214.597 535.502 214.758 536.017 214.886L537.312 215.205C538.093 215.394 538.674 215.684 539.057 216.074C539.439 216.46 539.631 216.958 539.631 217.568C539.631 218.068 539.487 218.515 539.199 218.909C538.915 219.303 538.517 219.614 538.006 219.841C537.494 220.068 536.9 220.182 536.222 220.182C535.331 220.182 534.595 219.989 534.011 219.602C533.428 219.216 533.059 218.652 532.903 217.909L534.176 217.591C534.297 218.061 534.527 218.413 534.864 218.648C535.205 218.883 535.65 219 536.199 219C536.824 219 537.32 218.867 537.688 218.602C538.059 218.333 538.244 218.011 538.244 217.636C538.244 217.333 538.138 217.08 537.926 216.875C537.714 216.667 537.388 216.511 536.949 216.409L535.494 216.068C534.695 215.879 534.108 215.585 533.733 215.188C533.362 214.786 533.176 214.284 533.176 213.682C533.176 213.189 533.314 212.754 533.591 212.375C533.871 211.996 534.252 211.699 534.733 211.483C535.218 211.267 535.767 211.159 536.381 211.159C537.244 211.159 537.922 211.348 538.415 211.727C538.911 212.106 539.263 212.606 539.472 213.227Z" fill="#525866"/>
<path d="M0 240H820" stroke="#E1E4EA"/>
</svg>
