<svg width="86" height="15" viewBox="0 0 86 15" fill="none" xmlns="http://www.w3.org/2000/svg">
<path d="M5.91763 7.28585C6.23545 6.7439 6.04071 6.05762 5.48268 5.75301C4.92464 5.4484 4.21463 5.64079 3.89681 6.18274L0.166129 12.5444C-0.151687 13.0864 0.0430495 13.7726 0.601084 14.0773C1.15912 14.3819 1.86913 14.1895 2.18695 13.6475L5.91763 7.28585Z" fill="black"/>
<path d="M13.9589 2.408C14.2767 1.86605 14.082 1.17977 13.524 0.875158C12.9659 0.570545 12.2559 0.762943 11.9381 1.30489L8.20741 7.66656C7.8896 8.20851 8.08433 8.89479 8.64237 9.1994C9.2004 9.50401 9.91042 9.31162 10.2282 8.76967L13.9589 2.408Z" fill="black"/>
<path d="M26.3321 2.40821C26.6499 1.86626 26.4552 1.17999 25.8972 0.875373C25.3391 0.570759 24.6291 0.763157 24.3113 1.30511L20.5806 7.66678C20.2628 8.20873 20.4575 8.895 21.0156 9.19961C21.5736 9.50423 22.2836 9.31183 22.6014 8.76988L26.3321 2.40821Z" fill="black"/>
<path d="M18.2882 7.28585C18.6061 6.7439 18.4113 6.05762 17.8533 5.75301C17.2952 5.4484 16.5852 5.64079 16.2674 6.18274L12.5367 12.5444C12.2189 13.0864 12.4137 13.7726 12.9717 14.0773C13.5297 14.3819 14.2397 14.1895 14.5576 13.6475L18.2882 7.28585Z" fill="black"/>
<path d="M35.2614 13.4297C34.5094 13.4297 33.8456 13.2518 33.2699 12.8958C32.7059 12.5399 32.2653 12.029 31.9481 11.3631C31.6309 10.6971 31.4723 9.91066 31.4723 9.00361C31.4723 8.09655 31.6309 7.31583 31.9481 6.66138C32.2653 6.00694 32.7059 5.50177 33.2699 5.14583C33.8456 4.78989 34.5094 4.61194 35.2614 4.61194C35.9428 4.61194 36.5421 4.77267 37.059 5.09416C37.5877 5.41566 37.9461 5.83472 38.1341 6.35138H37.9402V2.26972C37.9402 1.83344 38.0518 1.50621 38.275 1.28805C38.4983 1.05844 38.8272 0.943606 39.262 0.943606C39.6849 0.943606 40.0139 1.05844 40.2489 1.28805C40.4839 1.50621 40.6014 1.83344 40.6014 2.26972V12.0692C40.6014 12.494 40.4839 12.8212 40.2489 13.0508C40.0257 13.2804 39.7026 13.3953 39.2796 13.3953C38.8566 13.3953 38.5276 13.2804 38.2927 13.0508C38.0694 12.8212 37.9578 12.494 37.9578 12.0692V10.8981L38.1517 11.5697C37.9872 12.1323 37.6347 12.5858 37.0942 12.9303C36.5655 13.2632 35.9546 13.4297 35.2614 13.4297ZM36.0544 11.4836C36.4422 11.4836 36.777 11.3918 37.059 11.208C37.341 11.0243 37.5642 10.7545 37.7287 10.3986C37.8932 10.0312 37.9754 9.56621 37.9754 9.00361C37.9754 8.16544 37.7992 7.55121 37.4467 7.16083C37.0942 6.75899 36.6302 6.55805 36.0544 6.55805C35.6785 6.55805 35.3436 6.64416 35.0499 6.81638C34.7679 6.98861 34.5447 7.25843 34.3802 7.62583C34.2274 7.98177 34.1511 8.441 34.1511 9.00361C34.1511 9.84177 34.3273 10.4675 34.6798 10.8808C35.0323 11.2827 35.4905 11.4836 36.0544 11.4836ZM44.0266 13.3953C43.5802 13.3953 43.2392 13.2804 43.0044 13.0508C42.7695 12.8212 42.6519 12.494 42.6519 12.0692V5.95527C42.6519 5.53044 42.7634 5.20899 42.9868 4.99083C43.2216 4.76121 43.545 4.64638 43.9561 4.64638C44.379 4.64638 44.702 4.76121 44.9254 4.99083C45.1487 5.20899 45.2602 5.53044 45.2602 5.95527V6.85083H45.084C45.225 6.16194 45.5365 5.62805 46.018 5.24916C46.4996 4.87027 47.1226 4.65788 47.8862 4.61194C48.18 4.58899 48.403 4.66361 48.5559 4.83583C48.7202 4.99655 48.8083 5.26638 48.8202 5.64527C48.8436 6.00121 48.7673 6.2825 48.5911 6.48916C48.4268 6.69583 48.1448 6.82211 47.7452 6.86805L47.3398 6.90249C46.6701 6.95989 46.1709 7.14933 45.8418 7.47083C45.5246 7.79232 45.366 8.25732 45.366 8.86583V12.0692C45.366 12.494 45.2483 12.8212 45.0135 13.0508C44.7901 13.2804 44.4614 13.3953 44.0266 13.3953ZM51.2541 13.3781C50.8196 13.3781 50.4848 13.2575 50.2495 13.0164C50.0266 12.7638 49.9147 12.4136 49.9147 11.9658V6.07583C49.9147 5.61655 50.0266 5.26638 50.2495 5.02527C50.4848 4.77267 50.8196 4.64638 51.2541 4.64638C51.677 4.64638 52.0004 4.77267 52.2234 5.02527C52.4586 5.26638 52.5758 5.61655 52.5758 6.07583V11.9658C52.5758 12.4136 52.4644 12.7638 52.241 13.0164C52.0181 13.2575 51.6889 13.3781 51.2541 13.3781ZM51.2541 3.23416C50.7606 3.23416 50.379 3.1251 50.1085 2.90694C49.8503 2.67732 49.7208 2.35583 49.7208 1.9425C49.7208 1.51767 49.8503 1.19621 50.1085 0.978051C50.379 0.748436 50.7606 0.633606 51.2541 0.633606C51.7475 0.633606 52.1238 0.748436 52.382 0.978051C52.6406 1.19621 52.7697 1.51767 52.7697 1.9425C52.7697 2.35583 52.6406 2.67732 52.382 2.90694C52.1238 3.1251 51.7475 3.23416 51.2541 3.23416ZM55.371 13.2403C55.1123 13.2403 54.8951 13.1771 54.7189 13.0508C54.5427 12.9131 54.425 12.7408 54.3664 12.5342C54.3074 12.3275 54.3074 12.1036 54.3664 11.8625C54.4369 11.6214 54.5717 11.3975 54.7718 11.1908L59.0896 6.12749V6.73027H55.2652C54.948 6.73027 54.7013 6.64416 54.525 6.47194C54.3488 6.29972 54.2607 6.06433 54.2607 5.76583C54.2607 5.44433 54.3488 5.20322 54.525 5.04249C54.7013 4.87027 54.948 4.78416 55.2652 4.78416H60.3585C60.6757 4.78416 60.9282 4.85305 61.1163 4.99083C61.304 5.12861 61.4274 5.30083 61.4864 5.5075C61.5569 5.70267 61.5626 5.92083 61.504 6.16194C61.4569 6.39156 61.3335 6.60972 61.1339 6.81638L56.7104 11.9831V11.3114H60.7991C61.4688 11.3114 61.8036 11.6329 61.8036 12.2758C61.8036 12.5858 61.7155 12.8269 61.5393 12.9992C61.3631 13.1599 61.1163 13.2403 60.7991 13.2403H55.371ZM63.8383 13.2403C63.5801 13.2403 63.3625 13.1771 63.1862 13.0508C63.01 12.9131 62.8928 12.7408 62.8338 12.5342C62.7752 12.3275 62.7752 12.1036 62.8338 11.8625C62.9042 11.6214 63.0395 11.3975 63.2391 11.1908L67.5569 6.12749V6.73027H63.7326C63.4153 6.73027 63.1686 6.64416 62.9924 6.47194C62.8161 6.29972 62.728 6.06433 62.728 5.76583C62.728 5.44433 62.8161 5.20322 62.9924 5.04249C63.1686 4.87027 63.4153 4.78416 63.7326 4.78416H68.8258C69.1431 4.78416 69.396 4.85305 69.5837 4.99083C69.7718 5.12861 69.8951 5.30083 69.9538 5.5075C70.0242 5.70267 70.0304 5.92083 69.9714 6.16194C69.9247 6.39156 69.8013 6.60972 69.6013 6.81638L65.1777 11.9831V11.3114H69.2664C69.9361 11.3114 70.271 11.6329 70.271 12.2758C70.271 12.5858 70.1829 12.8269 70.0066 12.9992C69.8304 13.1599 69.5837 13.2403 69.2664 13.2403H63.8383ZM74.6853 13.4297C73.6398 13.4297 72.8582 13.1484 72.3413 12.5858C71.8245 12.0118 71.5659 11.1621 71.5659 10.0369V2.26972C71.5659 1.83344 71.6774 1.50621 71.9007 1.28805C72.1356 1.05844 72.4704 0.943606 72.9053 0.943606C73.3283 0.943606 73.6512 1.05844 73.8746 1.28805C74.1094 1.50621 74.2271 1.83344 74.2271 2.26972V9.93361C74.2271 10.4043 74.3271 10.7545 74.5267 10.9842C74.7382 11.2023 75.0144 11.3114 75.355 11.3114C75.4488 11.3114 75.537 11.3057 75.6194 11.2942C75.7017 11.2827 75.7899 11.2769 75.8837 11.2769C76.0718 11.254 76.2009 11.3114 76.2714 11.4492C76.3538 11.5754 76.3948 11.8338 76.3948 12.2242C76.3948 12.5686 76.3243 12.8327 76.1833 13.0164C76.0423 13.1886 75.8251 13.3034 75.5312 13.3608C75.4136 13.3723 75.2788 13.3838 75.1259 13.3953C74.973 13.4182 74.8263 13.4297 74.6853 13.4297ZM81.8428 13.4297C80.8206 13.4297 79.9394 13.2518 79.1992 12.8958C78.4709 12.5284 77.9069 12.0175 77.5073 11.3631C77.1196 10.6971 76.9257 9.91638 76.9257 9.02083C76.9257 8.14822 77.1139 7.38472 77.4897 6.73027C77.8655 6.06433 78.3885 5.54767 79.0582 5.18027C79.7398 4.80138 80.5091 4.61194 81.3669 4.61194C81.9895 4.61194 82.5534 4.71527 83.0588 4.92194C83.5641 5.11711 83.9986 5.40416 84.3629 5.78305C84.7273 6.15044 85.0031 6.60399 85.1913 7.14361C85.3794 7.67177 85.4732 8.26305 85.4732 8.91749C85.4732 9.13566 85.4027 9.30211 85.2618 9.41694C85.1208 9.52027 84.915 9.57194 84.6449 9.57194H79.1111V8.22861H83.5522L83.2703 8.46972C83.2703 7.99899 83.1998 7.60861 83.0588 7.29861C82.9178 6.97711 82.712 6.736 82.442 6.57527C82.1833 6.41455 81.8604 6.33416 81.4726 6.33416C81.0378 6.33416 80.6677 6.43177 80.3624 6.62694C80.057 6.82211 79.8217 7.10343 79.6574 7.47083C79.4931 7.83822 79.4107 8.28027 79.4107 8.79694V8.93472C79.4107 9.80732 79.6164 10.4503 80.0275 10.8636C80.4505 11.2769 81.073 11.4836 81.8956 11.4836C82.1776 11.4836 82.5005 11.4492 82.8649 11.3803C83.2293 11.3114 83.5699 11.2023 83.8871 11.0531C84.1572 10.9268 84.3982 10.8866 84.6097 10.9325C84.8212 10.9669 84.9855 11.0588 85.1031 11.208C85.2208 11.3573 85.2851 11.5295 85.297 11.7247C85.3204 11.9199 85.2794 12.1151 85.1736 12.3103C85.0679 12.494 84.8917 12.649 84.6449 12.7753C84.2453 12.9934 83.7933 13.1542 83.2879 13.2575C82.7944 13.3723 82.3129 13.4297 81.8428 13.4297Z" fill="black"/>
</svg>
