<svg width="30" height="30" viewBox="0 0 30 30" fill="none" xmlns="http://www.w3.org/2000/svg">
<rect width="30" height="30" rx="6" fill="#0E121B"/>
<path d="M9 22V8H13.72C16.76 8 18.4 9.5 18.4 11.68C18.4 13.02 17.86 13.98 16.14 14.62C18.42 15.16 19.18 16.4 19.18 18.14C19.18 20.48 17.26 22 14.22 22H9ZM11.8 19.48H13.96C15.48 19.48 16.34 18.92 16.34 17.7C16.34 16.68 15.48 16.06 13.96 16.06H11.8V19.48ZM11.8 13.78H13.46C14.98 13.78 15.56 13.24 15.56 12.12C15.56 11.16 14.98 10.5 13.46 10.5H11.8V13.78ZM20.6044 22.13C20.0844 22.13 19.7044 21.73 19.7044 21.25C19.7044 20.78 20.0844 20.38 20.6044 20.38C21.1244 20.38 21.4944 20.78 21.4944 21.25C21.4944 21.73 21.1244 22.13 20.6044 22.13Z" fill="white"/>
</svg>
