<svg width="19" height="18" viewBox="0 0 19 18" fill="none" xmlns="http://www.w3.org/2000/svg">
<path d="M9.5 0C4.52958 0 0.5 4.02958 0.5 9C0.5 13.2497 3.44646 16.8092 7.4075 17.7528C7.20258 17.704 6.99938 17.6493 6.8 17.587V15.525C6.8 15.525 6.4625 15.6375 6.0125 15.6375C4.75354 15.6375 4.2305 14.5142 4.1 13.95C4.02073 13.6063 3.81373 13.2805 3.5915 13.0815C3.326 12.8447 3.20173 12.844 3.2 12.763C3.19654 12.5931 3.42777 12.6 3.5375 12.6C4.1 12.6 4.52646 13.1985 4.72446 13.508C5.21496 14.2719 5.74146 14.4 6.0125 14.4C6.35 14.4 6.64146 14.3495 6.84223 14.2525C6.935 13.599 7.22577 13.0168 7.7 12.6C5.5895 12.178 4.1 10.9675 4.1 9C4.1 7.98646 4.50673 7.05496 5.1845 6.30277C5.11527 6.1065 5 5.70946 5 5.0625C5 4.635 5.02977 4.11023 5.225 3.6C5.225 3.6 6.50854 3.609 7.71904 4.75546C8.27773 4.59277 8.87554 4.5 9.5 4.5C10.1245 4.5 10.7223 4.59277 11.281 4.75546C12.4915 3.609 13.775 3.6 13.775 3.6C13.9713 4.11023 14 4.635 14 5.0625C14 5.76 13.9072 6.16673 13.8505 6.34223C14.5075 7.0875 14.9 8.00446 14.9 9C14.9 10.9675 13.4105 12.178 11.3 12.6C11.8635 13.095 12.2 13.816 12.2 14.625V17.587C12.0006 17.6497 11.7978 17.704 11.5925 17.7528C15.5535 16.8092 18.5 13.2497 18.5 9C18.5 4.02958 14.4704 0 9.5 0ZM10.1276 17.9758C9.92023 17.9903 9.71115 18 9.5 18C9.71115 18 9.91988 17.99 10.1276 17.9758ZM9.5 18C9.28885 18 9.07977 17.9903 8.87242 17.9758C9.08012 17.99 9.28885 18 9.5 18ZM8.73431 17.9654C8.31304 17.9297 7.89973 17.8653 7.49715 17.7736C7.90008 17.865 8.31304 17.9297 8.73431 17.9654Z" fill="black"/>
</svg>
